<?xml version="1.0" encoding="utf-8"?>
<!-- Generator: Adobe Illustrator 27.5.0, SVG Export Plug-In . SVG Version: 6.00 Build 0)  -->
<svg version="1.1" xmlns="http://www.w3.org/2000/svg" xmlns:xlink="http://www.w3.org/1999/xlink" x="0px" y="0px"
	 viewBox="0 0 500 500" style="enable-background:new 0 0 500 500;" xml:space="preserve">
<g id="Background_Complete">
	<g>
		<rect x="416.779" y="398.494" style="fill:#EBEBEB;" width="33.122" height="0.25"/>
		<rect x="322.527" y="401.208" style="fill:#EBEBEB;" width="8.693" height="0.25"/>
		<rect x="396.586" y="389.208" style="fill:#EBEBEB;" width="19.192" height="0.25"/>
		<rect x="52.459" y="390.888" style="fill:#EBEBEB;" width="43.193" height="0.25"/>
		<rect x="104.556" y="390.888" style="fill:#EBEBEB;" width="6.333" height="0.25"/>
		<rect x="131.471" y="395.111" style="fill:#EBEBEB;" width="93.676" height="0.25"/>
		<path style="fill:#EBEBEB;" d="M237.014,337.8H43.915c-3.147,0-5.708-2.561-5.708-5.708V60.66c0-3.147,2.561-5.708,5.708-5.708
			h193.099c3.146,0,5.707,2.561,5.707,5.708v271.432C242.721,335.239,240.16,337.8,237.014,337.8z M43.915,55.203
			c-3.01,0-5.458,2.448-5.458,5.458v271.432c0,3.01,2.448,5.458,5.458,5.458h193.099c3.009,0,5.457-2.448,5.457-5.458V60.66
			c0-3.009-2.448-5.458-5.457-5.458H43.915z"/>
		<path style="fill:#EBEBEB;" d="M453.31,337.8H260.212c-3.147,0-5.707-2.561-5.707-5.708V60.66c0-3.147,2.561-5.708,5.707-5.708
			H453.31c3.148,0,5.708,2.561,5.708,5.708v271.432C459.019,335.239,456.458,337.8,453.31,337.8z M260.212,55.203
			c-3.009,0-5.457,2.448-5.457,5.458v271.432c0,3.01,2.448,5.458,5.457,5.458H453.31c3.01,0,5.458-2.448,5.458-5.458V60.66
			c0-3.009-2.448-5.458-5.458-5.458H260.212z"/>
		<rect y="382.398" style="fill:#EBEBEB;" width="500" height="0.25"/>
	</g>
	<g>
		<g>
			<rect x="261.2" y="103.101" style="fill:#F0F0F0;" width="28.985" height="38.908"/>
			<rect x="263.6" y="103.901" style="fill:#F5F5F5;" width="28.985" height="38.908"/>
			
				<rect x="256.182" y="106.336" transform="matrix(-1 -1.224647e-16 1.224647e-16 -1 521.5562 256.1073)" style="fill:#E0E0E0;" width="9.193" height="43.435"/>
			<polygon style="fill:#EBEBEB;" points="272.743,106.336 293.605,135.809 293.605,149.771 265.375,149.771 265.375,106.336 			"/>
			<path style="fill:#FAFAFA;" d="M257.956,142.809c0,1.559,1.263,2.822,2.822,2.822c1.559,0,2.822-1.263,2.822-2.822
				c0-1.558-1.263-2.822-2.822-2.822C259.22,139.988,257.956,141.251,257.956,142.809z"/>
			
				<rect x="257.956" y="116.53" transform="matrix(-1 -1.224647e-16 1.224647e-16 -1 521.5563 251.4029)" style="fill:#F0F0F0;" width="5.644" height="18.343"/>
			
				<rect x="257.956" y="116.53" transform="matrix(-1 -1.224647e-16 1.224647e-16 -1 521.5563 235.6467)" style="opacity:0.6;fill:#FAFAFA;" width="5.644" height="2.586"/>
		</g>
		<g>
			<rect x="218.592" y="103.101" style="fill:#F0F0F0;" width="28.985" height="38.908"/>
			<rect x="220.992" y="103.901" style="fill:#F5F5F5;" width="28.985" height="38.908"/>
			
				<rect x="213.574" y="106.336" transform="matrix(-1 -1.224647e-16 1.224647e-16 -1 436.34 256.1073)" style="fill:#E0E0E0;" width="9.193" height="43.435"/>
			<polygon style="fill:#EBEBEB;" points="230.135,106.336 250.997,135.809 250.997,149.771 222.766,149.771 222.766,106.336 			"/>
			<path style="fill:#FAFAFA;" d="M215.348,142.809c0,1.559,1.263,2.822,2.822,2.822s2.822-1.263,2.822-2.822
				c0-1.558-1.264-2.822-2.822-2.822S215.348,141.251,215.348,142.809z"/>
			
				<rect x="215.348" y="116.53" transform="matrix(-1 -1.224647e-16 1.224647e-16 -1 436.3401 251.4029)" style="fill:#F0F0F0;" width="5.644" height="18.343"/>
			
				<rect x="215.348" y="116.53" transform="matrix(-1 -1.224647e-16 1.224647e-16 -1 436.3401 235.6467)" style="opacity:0.6;fill:#FAFAFA;" width="5.644" height="2.586"/>
		</g>
		<g>
			<g>
				<path style="fill:#EBEBEB;" d="M163.28,139.439v-7.072c-0.871,0-0.873-1.354,0-1.354c2.695,0,5.393-0.018,8.09-0.034v9.815
					c-2.697,0-5.393,0-8.09,0C162.409,140.794,162.407,139.439,163.28,139.439z"/>
				<rect x="163.28" y="132.367" style="fill:#F5F5F5;" width="6.284" height="7.062"/>
				<path style="fill:#FAFAFA;" d="M168.246,140.117h21.787c1.498,0,2.712-1.886,2.712-4.213s-1.214-4.213-2.712-4.213h-21.787
					V140.117z"/>
				<g>
					<path style="fill:#E6E6E6;" d="M168.246,131.013c7.133,0,14.277-0.129,21.409,0c4.885,0.088,5.148,9.452,0.356,9.781
						c-3.34,0.229-6.776,0-10.122,0c-3.881,0-7.762,0-11.642,0c-0.871,0-0.873-1.354,0-1.354c6.76,0,13.521,0,20.281,0
						c1.565,0,2.684-0.017,3.288-1.863c0.523-1.597,0.359-4.856-1.783-5.209c-0.231-0.038-0.502,0-0.734,0
						c-3.686,0-7.372,0-11.058,0c-3.332,0-6.663,0-9.995,0C167.374,132.367,167.373,131.013,168.246,131.013L168.246,131.013z"/>
				</g>
			</g>
			<g>
				<path style="fill:#EBEBEB;" d="M163.207,129.889v-6.285c-0.774,0-0.776-1.204,0-1.204c2.395,0,4.792-0.016,7.19-0.031v8.723
					c-2.397,0-4.793,0-7.19,0C162.433,131.092,162.432,129.889,163.207,129.889z"/>
				<rect x="163.207" y="123.604" style="fill:#F5F5F5;" width="5.585" height="6.276"/>
				<path style="fill:#FAFAFA;" d="M167.62,130.491h19.361c1.331,0,2.41-1.676,2.41-3.744c0-2.068-1.079-3.744-2.41-3.744H167.62
					V130.491z"/>
				<g>
					<path style="fill:#E6E6E6;" d="M167.62,122.4c6.339,0,12.688-0.114,19.026,0c4.341,0.078,4.575,8.4,0.317,8.692
						c-2.968,0.204-6.022,0-8.996,0c-3.449,0-6.898,0-10.346,0c-0.774,0-0.776-1.203,0-1.203c6.008,0,12.016,0,18.024,0
						c1.391,0,2.385-0.016,2.922-1.656c0.465-1.419,0.319-4.316-1.585-4.629c-0.205-0.034-0.446,0-0.652,0c-3.276,0-6.551,0-9.827,0
						c-2.961,0-5.922,0-8.882,0C166.846,123.604,166.845,122.4,167.62,122.4L167.62,122.4z"/>
				</g>
			</g>
			<g>
				<path style="fill:#EBEBEB;" d="M163.28,149.051v-7.072c-0.871,0-0.873-1.354,0-1.354c2.695,0,5.393-0.018,8.09-0.034v9.815
					c-2.697,0-5.393,0-8.09,0C162.409,150.406,162.407,149.051,163.28,149.051z"/>
				<rect x="163.28" y="141.979" style="fill:#F5F5F5;" width="6.284" height="7.062"/>
				<path style="fill:#FAFAFA;" d="M168.246,149.729h21.787c1.498,0,2.712-1.886,2.712-4.213c0-2.327-1.214-4.213-2.712-4.213
					h-21.787V149.729z"/>
				<g>
					<path style="fill:#E6E6E6;" d="M168.246,140.625c7.133,0,14.277-0.129,21.409,0c4.885,0.088,5.148,9.452,0.356,9.781
						c-3.34,0.229-6.776,0-10.122,0c-3.881,0-7.762,0-11.642,0c-0.871,0-0.873-1.354,0-1.354c6.76,0,13.521,0,20.281,0
						c1.565,0,2.684-0.017,3.288-1.863c0.523-1.597,0.359-4.856-1.783-5.209c-0.231-0.038-0.502,0-0.734,0
						c-3.686,0-7.372,0-11.058,0c-3.332,0-6.663,0-9.995,0C167.374,141.979,167.373,140.625,168.246,140.625L168.246,140.625z"/>
				</g>
			</g>
		</g>
		<g>
			<polygon style="fill:#F5F5F5;" points="134.482,149.064 132.648,149.064 79.582,149.064 79.582,156.109 132.648,156.109 
				134.482,156.109 420.418,156.109 420.418,149.064 			"/>
			<g>
				<polygon style="fill:#E0E0E0;" points="92.703,173.238 92.703,156.109 84.138,156.109 				"/>
				<polygon style="fill:#F5F5F5;" points="88.42,173.238 79.856,156.109 84.138,156.109 92.703,173.238 				"/>
			</g>
			<g>
				<polygon style="fill:#E0E0E0;" points="407.571,173.238 407.571,156.109 416.136,156.109 				"/>
				<polygon style="fill:#F5F5F5;" points="411.853,173.238 420.418,156.109 416.136,156.109 407.571,173.238 				"/>
			</g>
		</g>
		<g>
			<path style="fill:#E6E6E6;" d="M148.28,131.908c0,10.29-8.342,18.632-18.632,18.632s-18.632-8.342-18.632-18.632v-0.649
				c0-10.29,8.342-18.632,18.632-18.632c10.29,0,18.632,8.342,18.632,18.632V131.908z"/>
			<path style="fill:#F0F0F0;" d="M148.28,129.229c0,10.29-8.342,18.632-18.632,18.632s-18.632-8.342-18.632-18.632v-0.649
				c0-10.29,8.342-18.632,18.632-18.632c10.29,0,18.632,8.342,18.632,18.632V129.229z"/>
			<path style="fill:#FAFAFA;" d="M144.204,128.58c0,8.039-6.517,14.556-14.556,14.556c-8.039,0-14.556-6.517-14.556-14.556
				s6.517-14.556,14.556-14.556C137.687,114.024,144.204,120.541,144.204,128.58z"/>
			<path style="fill:#E6E6E6;" d="M129.648,116.322c7.651,0,13.911,5.907,14.498,13.407c0.03-0.38,0.058-0.761,0.058-1.149
				c0-8.039-6.517-14.556-14.556-14.556c-8.039,0-14.556,6.517-14.556,14.556c0,0.388,0.028,0.769,0.058,1.149
				C115.737,122.229,121.997,116.322,129.648,116.322z"/>
			<path style="fill:#E0E0E0;" d="M138.841,128.572c-0.436,0-5.136,0-7.653,0c0-2.52,0-7.227,0-7.653c0-0.851-0.69-1.54-1.54-1.54
				c-0.85,0-1.54,0.69-1.54,1.54c0,0.576,0,8.617,0,9.193c0,0.85,0.689,1.54,1.54,1.54l0,0l0,0c0.564,0,8.63,0,9.193,0
				c0.85,0,1.54-0.69,1.54-1.54C140.382,129.262,139.692,128.572,138.841,128.572z"/>
			<path style="fill:#F5F5F5;" d="M138.842,130.12c0.85,0,1.54-0.69,1.54-1.54c0-0.851-0.689-1.54-1.54-1.54
				c-0.576,0-8.617,0-9.194,0c-0.85,0-1.54,0.689-1.54,1.54c0,0.85,0.689,1.54,1.54,1.54
				C130.212,130.12,138.278,130.12,138.842,130.12z"/>
			<path style="fill:#EBEBEB;" d="M131.188,119.387c0-0.851-0.69-1.54-1.54-1.54c-0.85,0-1.54,0.69-1.54,1.54
				c0,0.576,0,8.617,0,9.193c0,0.85,0.689,1.54,1.54,1.54c0.851,0,1.54-0.689,1.54-1.54
				C131.188,128.016,131.188,119.951,131.188,119.387z"/>
		</g>
		<g>
			<g>
				<rect x="318.376" y="102.661" style="fill:#E0E0E0;" width="11.229" height="46.645"/>
				<circle style="fill:#FAFAFA;" cx="323.991" cy="139.346" r="3.455"/>
				<rect x="320.535" y="107.172" style="opacity:0.6;fill:#F0F0F0;" width="6.91" height="22.458"/>
				<rect x="320.535" y="107.172" style="opacity:0.6;fill:#FAFAFA;" width="6.91" height="3.167"/>
			</g>
			<g>
				<rect x="331.803" y="102.661" style="fill:#E0E0E0;" width="11.229" height="46.645"/>
				<circle style="fill:#FAFAFA;" cx="337.417" cy="139.346" r="3.455"/>
				<rect x="333.962" y="107.172" style="opacity:0.6;fill:#F0F0F0;" width="6.91" height="22.458"/>
				<rect x="333.962" y="107.172" style="opacity:0.6;fill:#FAFAFA;" width="6.91" height="3.167"/>
			</g>
			<g>
				<rect x="345.229" y="102.661" style="fill:#E6E6E6;" width="11.229" height="46.645"/>
				<circle style="fill:#FAFAFA;" cx="350.844" cy="139.346" r="3.455"/>
				<rect x="347.389" y="107.172" style="opacity:0.6;fill:#F0F0F0;" width="6.91" height="22.458"/>
				<rect x="347.389" y="107.172" style="opacity:0.6;fill:#FAFAFA;" width="6.91" height="3.167"/>
			</g>
			<g>
				<rect x="307.321" y="102.661" style="fill:#EBEBEB;" width="11.229" height="46.645"/>
				<circle style="fill:#E0E0E0;" cx="312.935" cy="139.346" r="3.455"/>
				<rect x="309.48" y="107.172" style="opacity:0.6;fill:#FAFAFA;" width="6.91" height="22.458"/>
				<rect x="309.48" y="107.172" style="opacity:0.6;fill:#FAFAFA;" width="6.91" height="3.167"/>
			</g>
			<g>
				<rect x="358.656" y="102.661" style="fill:#E0E0E0;" width="11.229" height="46.645"/>
				<circle style="fill:#FAFAFA;" cx="364.271" cy="139.346" r="3.455"/>
				<rect x="360.815" y="107.172" style="opacity:0.6;fill:#F0F0F0;" width="6.91" height="22.458"/>
				<rect x="360.815" y="107.172" style="opacity:0.6;fill:#FAFAFA;" width="6.91" height="3.167"/>
			</g>
			<g>
				
					<rect x="372.271" y="102.661" transform="matrix(0.9945 -0.1045 0.1045 0.9945 -11.0986 40.1893)" style="fill:#EBEBEB;" width="11.229" height="46.645"/>
				<path style="fill:#E0E0E0;" d="M382.719,138.912c0.199,1.898-1.177,3.598-3.075,3.797c-1.898,0.199-3.598-1.177-3.797-3.075
					c-0.199-1.898,1.177-3.598,3.075-3.797C380.819,135.638,382.519,137.014,382.719,138.912z"/>
				
					<rect x="373.638" y="107.213" transform="matrix(0.9945 -0.1045 0.1045 0.9945 -10.3148 40.0659)" style="opacity:0.6;fill:#F5F5F5;" width="6.91" height="22.457"/>
				
					<rect x="372.63" y="107.266" transform="matrix(0.9945 -0.1045 0.1045 0.9945 -9.3177 39.908)" style="opacity:0.6;fill:#FAFAFA;" width="6.91" height="3.167"/>
			</g>
		</g>
	</g>
	<g>
		
			<rect x="64.992" y="309.586" transform="matrix(-1 -1.224647e-16 1.224647e-16 -1 232.5111 654.5626)" style="fill:#EBEBEB;" width="102.527" height="35.391"/>
		
			<rect x="64.992" y="344.977" transform="matrix(-1 -1.224647e-16 1.224647e-16 -1 232.5111 725.344)" style="fill:#EBEBEB;" width="102.527" height="35.391"/>
		<g>
			<polygon style="fill:#F5F5F5;" points="107.03,344.977 94.273,309.586 113.906,309.586 126.662,344.977 			"/>
			<polygon style="fill:#F5F5F5;" points="84.771,309.586 89.084,309.586 101.84,344.977 97.528,344.977 			"/>
		</g>
		<g>
			<polygon style="fill:#F5F5F5;" points="119.786,380.367 107.03,344.977 126.662,344.977 139.419,380.367 			"/>
			<polygon style="fill:#F5F5F5;" points="97.528,344.977 101.84,344.977 114.597,380.367 110.285,380.367 			"/>
		</g>
		<g>
			
				<rect x="64.992" y="239.121" transform="matrix(-1 -1.224647e-16 1.224647e-16 -1 232.511 513.6322)" style="fill:#EBEBEB;" width="102.527" height="35.391"/>
			
				<rect x="64.992" y="274.511" transform="matrix(-1 -1.224647e-16 1.224647e-16 -1 232.511 584.4135)" style="fill:#EBEBEB;" width="102.527" height="35.391"/>
			<g>
				<polygon style="fill:#F5F5F5;" points="101.964,274.511 89.207,239.121 108.84,239.121 121.597,274.511 				"/>
				<polygon style="fill:#F5F5F5;" points="79.706,239.121 84.018,239.121 96.775,274.511 92.462,274.511 				"/>
			</g>
			<g>
				<polygon style="fill:#F5F5F5;" points="114.72,309.902 101.964,274.511 121.597,274.511 134.353,309.902 				"/>
				<polygon style="fill:#F5F5F5;" points="92.462,274.511 96.775,274.511 109.531,309.902 105.219,309.902 				"/>
			</g>
			
				<rect x="114.465" y="191.51" transform="matrix(-1.836970e-16 1 -1 -1.836970e-16 359.029 126.518)" style="fill:#E0E0E0;" width="3.58" height="102.527"/>
			
				<rect x="114.465" y="226.624" transform="matrix(-1.836970e-16 1 -1 -1.836970e-16 394.1432 161.6322)" style="fill:#E0E0E0;" width="3.581" height="102.527"/>
			<g>
				<path style="fill:#E0E0E0;" d="M113.633,261.347c-0.849,0-1.538-0.689-1.538-1.538c0-0.849,0.688-1.538,1.538-1.538
					c0.431,0,4.815,0,5.245,0c0.849,0,1.538,0.689,1.538,1.538c0,0.849-0.688,1.538-1.538,1.538
					C118.413,261.347,114.098,261.347,113.633,261.347z"/>
				<path style="fill:#F5F5F5;" d="M113.633,260.804c-0.849,0-1.538-0.689-1.538-1.538c0-0.849,0.688-1.538,1.538-1.538
					c0.431,0,4.815,0,5.245,0c0.849,0,1.538,0.689,1.538,1.538c0,0.849-0.688,1.538-1.538,1.538
					C118.413,260.804,114.098,260.804,113.633,260.804z"/>
			</g>
			<g>
				<path style="fill:#E0E0E0;" d="M113.633,294.016c-0.849,0-1.538-0.689-1.538-1.538c0-0.849,0.688-1.538,1.538-1.538
					c0.431,0,4.815,0,5.245,0c0.849,0,1.538,0.689,1.538,1.538c0,0.849-0.688,1.538-1.538,1.538
					C118.413,294.016,114.098,294.016,113.633,294.016z"/>
				<path style="fill:#F5F5F5;" d="M113.633,293.473c-0.849,0-1.538-0.689-1.538-1.538c0-0.849,0.688-1.538,1.538-1.538
					c0.431,0,4.815,0,5.245,0c0.849,0,1.538,0.689,1.538,1.538c0,0.849-0.688,1.538-1.538,1.538
					C118.413,293.473,114.098,293.473,113.633,293.473z"/>
			</g>
			<path style="fill:#F5F5F5;" d="M63.201,237.535v73.914h1.79h1.79h98.947h1.79h1.79v-73.914H63.201z M66.782,276.382h98.947
				v31.485H66.782V276.382z M66.782,241.317h98.947v31.485H66.782V241.317z"/>
		</g>
		
			<rect x="114.465" y="261.975" transform="matrix(-1.836970e-16 1 -1 -1.836970e-16 429.4943 196.9832)" style="fill:#E0E0E0;" width="3.581" height="102.527"/>
		
			<rect x="114.465" y="297.089" transform="matrix(-1.836970e-16 1 -1 -1.836970e-16 464.6085 232.0974)" style="fill:#E0E0E0;" width="3.58" height="102.527"/>
		<g>
			<path style="fill:#E0E0E0;" d="M113.633,331.812c-0.849,0-1.538-0.689-1.538-1.538c0-0.849,0.688-1.538,1.538-1.538
				c0.431,0,4.815,0,5.246,0c0.849,0,1.538,0.689,1.538,1.538c0,0.849-0.688,1.538-1.538,1.538
				C118.413,331.812,114.098,331.812,113.633,331.812z"/>
			<path style="fill:#F5F5F5;" d="M113.633,331.269c-0.849,0-1.538-0.689-1.538-1.538s0.688-1.538,1.538-1.538
				c0.431,0,4.815,0,5.246,0c0.849,0,1.538,0.688,1.538,1.538s-0.688,1.538-1.538,1.538
				C118.413,331.269,114.098,331.269,113.633,331.269z"/>
		</g>
		<g>
			<path style="fill:#E0E0E0;" d="M113.633,364.481c-0.849,0-1.538-0.688-1.538-1.538c0-0.849,0.688-1.538,1.538-1.538
				c0.431,0,4.815,0,5.246,0c0.849,0,1.538,0.689,1.538,1.538c0,0.849-0.688,1.538-1.538,1.538
				C118.413,364.481,114.098,364.481,113.633,364.481z"/>
			<path style="fill:#F5F5F5;" d="M113.633,363.939c-0.849,0-1.538-0.689-1.538-1.538c0-0.849,0.688-1.538,1.538-1.538
				c0.431,0,4.815,0,5.246,0c0.849,0,1.538,0.689,1.538,1.538c0,0.849-0.688,1.538-1.538,1.538
				C118.413,363.939,114.098,363.939,113.633,363.939z"/>
		</g>
		<path style="fill:#F5F5F5;" d="M63.201,308v73.914h1.79h1.79h98.947h1.79h1.79V308H63.201z M66.782,346.848h98.947v31.485H66.782
			V346.848z M66.782,311.782h98.947v31.485H66.782V311.782z"/>
	</g>
</g>
<g id="Background_Simple" style="display:none;">
	<g style="display:inline;">
		<path style="fill:#407BFF;" d="M250.593,175.984c-18.842-6.764-25.827-24.811-56.05-48.45
			c-35.047-27.412-90.111-15.469-117.167,29.925c-33.26,55.804-10.529,149.913,59.85,188.246
			c152.14,82.867,270.028,1.853,291.861-57.931c20.512-56.168-16.855-118.59-71.777-117.49
			C304.953,171.333,276.686,185.351,250.593,175.984z"/>
		<path style="opacity:0.9;fill:#FFFFFF;" d="M250.593,175.984c-18.842-6.764-25.827-24.811-56.05-48.45
			c-35.047-27.412-90.111-15.469-117.167,29.925c-33.26,55.804-10.529,149.913,59.85,188.246
			c152.14,82.867,270.028,1.853,291.861-57.931c20.512-56.168-16.855-118.59-71.777-117.49
			C304.953,171.333,276.686,185.351,250.593,175.984z"/>
	</g>
</g>
<g id="Shadow">
	<ellipse id="_x3C_Path_x3E__1_" style="fill:#F5F5F5;" cx="245.178" cy="412.391" rx="193.889" ry="11.323"/>
</g>
<g id="Device">
	<g>
		<g>
			<g>
				<g>
					<path style="fill:#407BFF;" d="M271.084,397.233l-54.024-19.887c-4.126-1.519-7.802-4.053-10.688-7.37l-21.398-24.589
						l34.316-29.865l13.743,15.791c2.886,3.316,6.561,5.85,10.687,7.369L286.8,354.54L271.084,397.233z"/>
				</g>
				<g style="opacity:0.4;">
					<path style="fill:#FFFFFF;" d="M271.084,397.233l-54.024-19.887c-4.126-1.519-7.802-4.053-10.688-7.37l-21.398-24.589
						l34.316-29.865l13.743,15.791c2.886,3.316,6.561,5.85,10.687,7.369L286.8,354.54L271.084,397.233z"/>
				</g>
				<path style="opacity:0.2;" d="M220.659,367.886l4.489-7.86c0.747-1.308-0.823-2.708-2.037-1.816l-9.434,6.932
					c-1.119,0.822-2.662,0.764-3.724-0.132c-13.219-11.158-14.361-21.323-14.361-21.323l-4.006-4.055l-6.613,5.755l21.398,24.589
					c2.886,3.316,6.562,5.851,10.688,7.37l44.698,16.454l0.888-7.242c-15.371-2.093-33.866-10.987-40.759-14.522
					C220.368,371.257,219.813,369.368,220.659,367.886z"/>
			</g>
			<g>
				<circle style="opacity:0.6;fill:#FFFFFF;" cx="193.522" cy="348.99" r="1.464"/>
				<path style="opacity:0.6;fill:#FFFFFF;" d="M205.695,345.985c0,0.809-0.656,1.464-1.464,1.464c-0.809,0-1.464-0.656-1.464-1.464
					c0-0.809,0.656-1.464,1.464-1.464C205.039,344.521,205.695,345.176,205.695,345.985z"/>
				<circle style="opacity:0.6;fill:#FFFFFF;" cx="215.516" cy="339.632" r="1.464"/>
				<path style="opacity:0.6;fill:#FFFFFF;" d="M227.355,332.228c0,0.809-0.656,1.465-1.464,1.465c-0.809,0-1.464-0.656-1.464-1.465
					c0-0.809,0.656-1.464,1.464-1.464C226.7,330.763,227.355,331.419,227.355,332.228z"/>
			</g>
			<g>
				<path style="fill:#407BFF;" d="M207.678,338.324c9.096-4.786,16.242-10.185,18.86-13.921l-2.815-42.943l-71.998,37.884
					l33.797,26.641C190.085,345.942,198.581,343.111,207.678,338.324z"/>
				<path style="opacity:0.6;fill:#FFFFFF;" d="M207.678,338.324c9.096-4.786,16.242-10.185,18.86-13.921l-2.815-42.943
					l-71.998,37.884l33.797,26.641C190.085,345.942,198.581,343.111,207.678,338.324z"/>
				<path style="opacity:0.2;fill:#263238;" d="M195.593,343.687l-30.345-30.714l-0.563-0.448l-12.959,6.819l33.797,26.641
					C187.939,345.962,191.465,345.151,195.593,343.687z"/>
			</g>
			<g>
				<g>
					<path style="fill:#263238;" d="M223.723,281.461c2.495,4.742-11.599,17.067-31.481,27.528
						c-19.882,10.461-38.021,15.098-40.517,10.356c-2.495-4.742,11.599-17.067,31.481-27.528
						C203.088,281.355,221.228,276.719,223.723,281.461z"/>
					<path style="opacity:0.3;fill:#FFFFFF;" d="M223.723,281.461c2.495,4.742-11.599,17.067-31.481,27.528
						c-19.882,10.461-38.021,15.098-40.517,10.356c-2.495-4.742,11.599-17.067,31.481-27.528
						C203.088,281.355,221.228,276.719,223.723,281.461z"/>
				</g>
				<path style="fill:#263238;" d="M171.773,317.96c6.135-2.094,13.181-5.137,20.469-8.972s13.786-7.919,18.986-11.789
					c-6.135,2.094-13.181,5.137-20.469,8.972S176.974,314.09,171.773,317.96z"/>
			</g>
		</g>
		<g>
			<g>
				<rect x="261.855" y="319.697" style="fill:#407BFF;" width="160.534" height="94.398"/>
				<rect x="261.855" y="319.697" style="opacity:0.4;fill:#FFFFFF;" width="160.534" height="94.398"/>
			</g>
			<g style="opacity:0.8;">
				<polygon style="fill:#FFFFFF;" points="203.581,321.051 205.131,323.814 202.127,327.472 200.577,324.709 				"/>
				<polygon style="fill:#FFFFFF;" points="205.121,332.812 203.571,330.048 206.576,326.391 208.125,329.154 				"/>
				<polygon style="fill:#FFFFFF;" points="209.57,331.73 211.156,334.558 207.309,336.715 206.566,335.388 				"/>
				<polygon style="fill:#FFFFFF;" points="194.869,310.021 203.944,314.191 200.742,315.987 202.137,318.474 199.133,322.132 
					196.896,318.143 193.694,319.939 				"/>
			</g>
		</g>
		<g>
			<path style="opacity:0.2;fill:#FFFFFF;" d="M406.088,342.29v49.61c0,0.85-0.28,1.64-0.77,2.27c-1.4,0.74-3,1.15-4.69,1.15h-26.86
				c-5.63,0-10.2-4.57-10.2-10.2v-40.99c0-1.79,0.46-3.47,1.27-4.93c-0.14,0.08-0.27,0.15-0.4,0.24c0.67-0.59,1.53-0.94,2.49-0.94
				h35.37C404.388,338.5,406.088,340.2,406.088,342.29z"/>
			<path style="opacity:0.2;" d="M370.1,399.323h26.857c3.847,0,7.193-2.13,8.932-5.273c-1.462,0.809-3.142,1.273-4.932,1.273H374.1
				c-5.636,0-10.205-4.569-10.205-10.205v-40.989c0-1.79,0.464-3.47,1.273-4.932c-3.143,1.739-5.273,5.086-5.273,8.932v40.989
				C359.896,394.754,364.465,399.323,370.1,399.323z"/>
		</g>
		<g>
			<path style="opacity:0.2;fill:#FFFFFF;" d="M326.152,342.29v49.61c0,0.85-0.28,1.64-0.77,2.27c-1.4,0.74-3,1.15-4.69,1.15h-26.86
				c-5.63,0-10.2-4.57-10.2-10.2v-40.99c0-1.79,0.46-3.47,1.27-4.93c-0.14,0.08-0.27,0.15-0.4,0.24c0.67-0.59,1.53-0.94,2.49-0.94
				h35.37C324.451,338.5,326.152,340.2,326.152,342.29z"/>
			<path style="opacity:0.2;" d="M325.621,394.05c-1.74,3.14-5.08,5.27-8.93,5.27h-26.86c-5.63,0-10.2-4.57-10.2-10.2v-40.99
				c0-3.68,1.95-6.9,4.87-8.69c0.13-0.09,0.26-0.16,0.4-0.24c-0.81,1.46-1.27,3.14-1.27,4.93v40.99c0,5.63,4.57,10.2,10.2,10.2
				h26.86c1.69,0,3.29-0.41,4.69-1.15C325.462,394.14,325.542,394.09,325.621,394.05z"/>
			<g>
				<g>
					<path style="fill:#263238;" d="M309.746,368.539c0,2.847-2.305,5.153-5.153,5.153c-2.841,0-5.147-2.306-5.147-5.153
						c0-2.841,2.306-5.147,5.147-5.147C307.441,363.392,309.746,365.697,309.746,368.539z"/>
					<path style="fill:#FFFFFF;" d="M309.746,368.539c0,2.847-2.305,5.153-5.153,5.153c-2.841,0-5.147-2.306-5.147-5.153
						c0-2.841,2.306-5.147,5.147-5.147C307.441,363.392,309.746,365.697,309.746,368.539z"/>
					<path style="fill:#263238;" d="M309.746,368.539c0,2.847-2.305,5.153-5.153,5.153c-2.841,0-5.147-2.306-5.147-5.153
						c0-2.841,2.306-5.147,5.147-5.147C307.441,363.392,309.746,365.697,309.746,368.539z"/>
					<polygon style="fill:#263238;" points="319.521,363.422 316.783,358.68 307.263,364.177 307.263,353.184 301.788,353.184 
						301.788,364.177 292.267,358.68 289.529,363.422 299.05,368.919 289.529,374.416 292.267,379.157 301.788,373.66 
						301.788,384.654 307.263,384.654 307.263,373.66 316.783,379.157 319.521,374.416 310,368.919 					"/>
					<polygon style="opacity:0.1;fill:#FFFFFF;" points="319.521,363.422 316.783,358.68 307.263,364.177 307.263,353.184 
						301.788,353.184 301.788,364.177 292.267,358.68 289.529,363.422 299.05,368.919 289.529,374.416 292.267,379.157 
						301.788,373.66 301.788,384.654 307.263,384.654 307.263,373.66 316.783,379.157 319.521,374.416 310,368.919 					"/>
				</g>
				<g>
					<path style="fill:#263238;" d="M304.593,350.611c-9.903,0-17.927,8.025-17.927,17.927c0,9.903,8.025,17.933,17.927,17.933
						c9.903,0,17.933-8.031,17.933-17.933C322.526,358.636,314.496,350.611,304.593,350.611z M304.593,382.252
						c-7.573,0-13.714-6.14-13.714-13.713s6.14-13.713,13.714-13.713c7.573,0,13.713,6.14,13.713,13.713
						S312.166,382.252,304.593,382.252z"/>
					<path style="opacity:0.3;fill:#FFFFFF;" d="M304.593,350.611c-9.903,0-17.927,8.025-17.927,17.927
						c0,9.903,8.025,17.933,17.927,17.933c9.903,0,17.933-8.031,17.933-17.933C322.526,358.636,314.496,350.611,304.593,350.611z
						 M304.593,382.252c-7.573,0-13.714-6.14-13.714-13.713s6.14-13.713,13.714-13.713c7.573,0,13.713,6.14,13.713,13.713
						S312.166,382.252,304.593,382.252z"/>
				</g>
				<path style="fill:#263238;" d="M301.762,368.801c0,1.526,1.237,2.764,2.764,2.764c1.526,0,2.764-1.237,2.764-2.764
					s-1.237-2.764-2.764-2.764C302.999,366.037,301.762,367.275,301.762,368.801z"/>
			</g>
		</g>
		<g>
			<path style="fill:#263238;" d="M350.307,354.763h-14.156c-1.588,0-2.875-1.287-2.875-2.875l0,0c0-1.588,1.287-2.876,2.875-2.876
				h14.156c1.588,0,2.875,1.287,2.875,2.876l0,0C353.183,353.476,351.896,354.763,350.307,354.763z"/>
			<path style="fill:#263238;" d="M350.307,365.864h-14.156c-1.588,0-2.875-1.287-2.875-2.875l0,0c0-1.588,1.287-2.875,2.875-2.875
				h14.156c1.588,0,2.875,1.287,2.875,2.875l0,0C353.183,364.576,351.896,365.864,350.307,365.864z"/>
			<path style="fill:#263238;" d="M350.307,376.964h-14.156c-1.588,0-2.875-1.287-2.875-2.875l0,0c0-1.588,1.287-2.875,2.875-2.875
				h14.156c1.588,0,2.875,1.287,2.875,2.875l0,0C353.183,375.677,351.896,376.964,350.307,376.964z"/>
			<path style="fill:#263238;" d="M350.307,388.065h-14.156c-1.588,0-2.875-1.287-2.875-2.875l0,0c0-1.588,1.287-2.876,2.875-2.876
				h14.156c1.588,0,2.875,1.287,2.875,2.876l0,0C353.183,386.777,351.896,388.065,350.307,388.065z"/>
		</g>
		<g>
			<g>
				<g>
					<path style="fill:#263238;" d="M411.244,291.092H272.911c-5.942,0-10.758-4.817-10.758-10.758v-99.758
						c0-5.942,4.817-10.758,10.758-10.758h138.333c5.942,0,10.758,4.817,10.758,10.758v99.758
						C422.002,286.275,417.185,291.092,411.244,291.092z"/>
					<path style="opacity:0.7;fill:#FFFFFF;" d="M411.244,291.092H272.911c-5.942,0-10.758-4.817-10.758-10.758v-99.758
						c0-5.942,4.817-10.758,10.758-10.758h138.333c5.942,0,10.758,4.817,10.758,10.758v99.758
						C422.002,286.275,417.185,291.092,411.244,291.092z"/>
				</g>
				<g>
					<path style="fill:#407BFF;" d="M412.415,285.746c2.338,0,4.24-1.902,4.24-4.241V179.404c0-2.338-1.902-4.24-4.24-4.24H271.74
						c-2.338,0-4.241,1.902-4.241,4.24v102.101c0,2.338,1.902,4.241,4.241,4.241H412.415z"/>
					<path style="opacity:0.6;fill:#FFFFFF;" d="M412.415,285.746c2.338,0,4.24-1.902,4.24-4.241V179.404
						c0-2.338-1.902-4.24-4.24-4.24H271.74c-2.338,0-4.241,1.902-4.241,4.24v102.101c0,2.338,1.902,4.241,4.241,4.241H412.415z"/>
				</g>
			</g>
			<g>
				<g>
					<polygon style="fill:#263238;" points="360.447,317.528 357.773,282.477 326.382,282.477 323.708,317.528 					"/>
				</g>
				<g>
					<path style="fill:#263238;" d="M380.4,319.31h-76.644c-2.022,0-3.661-1.639-3.661-3.661l0,0c0-2.022,1.639-3.661,3.661-3.661
						H380.4c2.022,0,3.661,1.639,3.661,3.661l0,0C384.06,317.671,382.421,319.31,380.4,319.31z"/>
				</g>
			</g>
			<g>
				<g>
					<path style="fill:#263238;" d="M411.244,291.639H272.911c-5.942,0-10.758-4.817-10.758-10.758v-99.758
						c0-5.942,4.817-10.758,10.758-10.758h138.332c5.942,0,10.758,4.817,10.758,10.758v99.758
						C422.002,286.822,417.185,291.639,411.244,291.639z"/>
					<path style="fill:#263238;" d="M411.244,291.639H272.911c-5.942,0-10.758-4.817-10.758-10.758v-99.758
						c0-5.942,4.817-10.758,10.758-10.758h138.332c5.942,0,10.758,4.817,10.758,10.758v99.758
						C422.002,286.822,417.185,291.639,411.244,291.639z"/>
				</g>
				<g>
					<path style="fill:#407BFF;" d="M412.415,286.292c2.338,0,4.24-1.902,4.24-4.241v-102.1c0-2.338-1.902-4.24-4.24-4.24H271.74
						c-2.338,0-4.241,1.902-4.241,4.24v102.1c0,2.338,1.902,4.241,4.241,4.241H412.415z"/>
				</g>
				<g>
					<path style="fill:#407BFF;" d="M412.415,286.292c2.338,0,4.24-1.902,4.24-4.241v-102.1c0-2.338-1.902-4.24-4.24-4.24H271.74
						c-2.338,0-4.241,1.902-4.241,4.24v102.1c0,2.338,1.902,4.241,4.241,4.241H412.415z"/>
				</g>
				<g style="opacity:0.6;">
					<path style="fill:#FFFFFF;" d="M412.415,286.292c2.338,0,4.24-1.902,4.24-4.241v-102.1c0-2.338-1.902-4.24-4.24-4.24H271.74
						c-2.338,0-4.241,1.902-4.241,4.24v102.1c0,2.338,1.902,4.241,4.241,4.241H412.415z"/>
				</g>
			</g>
			<g style="opacity:0.3;">
				<path style="fill:#FFFFFF;" d="M380.4,319.31h-76.644c-2.022,0-3.661-1.639-3.661-3.661l0,0c0-2.022,1.639-3.661,3.661-3.661
					H380.4c2.022,0,3.661,1.639,3.661,3.661l0,0C384.06,317.671,382.421,319.31,380.4,319.31z"/>
			</g>
			<g>
				<g>
					<path style="opacity:0.4;fill:#FFFFFF;" d="M334.357,263.405h-56.624c-3.244,0-5.874-2.63-5.874-5.874v-56.624
						c0-3.244,2.63-5.874,5.874-5.874h56.624c3.244,0,5.874,2.63,5.874,5.874v56.624
						C340.231,260.775,337.601,263.405,334.357,263.405z"/>
					<g>
						<path style="fill:#FFFFFF;" d="M334.397,255.152h-52.629c-0.738,0-1.337-0.599-1.337-1.337v-46.439
							c0-0.738,0.599-1.337,1.337-1.337l0,0c0.738,0,1.337,0.598,1.337,1.337v43.765c0,0.738,0.598,1.337,1.337,1.337h49.956
							c0.738,0,1.337,0.598,1.337,1.337l0,0C335.734,254.554,335.135,255.152,334.397,255.152z"/>
					</g>
					<path style="fill:#407BFF;" d="M324.525,215.57l0.872,2.527l4.065-1.403l-12.527,17.43l-7.739-4.872l-8.016,11.824
						l-7.721-0.341l-7.392,11.23c-0.406,0.617-0.235,1.445,0.381,1.852l0,0c0.617,0.406,1.446,0.235,1.852-0.382l6.557-9.962
						l7.698,0.339l7.403-10.921l7.68,4.836l13.731-19.105v4.174h2.673v-10.511L324.525,215.57z"/>
				</g>
				<g>
					<path style="opacity:0.4;fill:#FFFFFF;" d="M407.671,263.405h-56.624c-3.244,0-5.874-2.63-5.874-5.874v-56.624
						c0-3.244,2.63-5.874,5.874-5.874h56.624c3.244,0,5.874,2.63,5.874,5.874v56.624
						C413.545,260.775,410.915,263.405,407.671,263.405z"/>
					<g>
						<path style="fill:#FFFFFF;" d="M405.674,255.152h-52.63c-0.738,0-1.337-0.599-1.337-1.337v-46.439
							c0-0.738,0.599-1.337,1.337-1.337l0,0c0.738,0,1.337,0.598,1.337,1.337v43.765c0,0.738,0.599,1.337,1.337,1.337h49.956
							c0.738,0,1.337,0.598,1.337,1.337l0,0C407.01,254.554,406.412,255.152,405.674,255.152z"/>
					</g>
					<g>
						<rect x="353.99" y="242.104" style="fill:#407BFF;" width="7.709" height="11.712"/>
						<rect x="353.99" y="242.104" style="opacity:0.5;fill:#FFFFFF;" width="7.709" height="11.712"/>
					</g>
					<g>
						<rect x="369.409" y="231.071" style="fill:#407BFF;" width="7.709" height="22.744"/>
						<rect x="369.409" y="231.071" style="opacity:0.4;fill:#FFFFFF;" width="7.709" height="22.744"/>
					</g>
					<g>
						<rect x="384.828" y="235.925" style="fill:#407BFF;" width="7.709" height="17.89"/>
						<rect x="384.828" y="235.925" style="opacity:0.2;fill:#FFFFFF;" width="7.709" height="17.89"/>
					</g>
					<rect x="399.355" y="214.471" style="fill:#407BFF;" width="7.709" height="39.344"/>
				</g>
			</g>
			<g>
				<g>
					<path style="opacity:0.4;fill:#FFFFFF;" d="M334.357,262.858h-56.624c-3.244,0-5.874-2.63-5.874-5.874v-56.624
						c0-3.244,2.63-5.874,5.874-5.874h56.624c3.244,0,5.874,2.63,5.874,5.874v56.624
						C340.231,260.229,337.601,262.858,334.357,262.858z"/>
					<g>
						<path style="fill:#FFFFFF;" d="M334.397,254.605h-52.629c-0.738,0-1.337-0.598-1.337-1.337V206.83
							c0-0.738,0.599-1.337,1.337-1.337l0,0c0.738,0,1.337,0.598,1.337,1.337v43.765c0,0.738,0.598,1.337,1.337,1.337h49.956
							c0.738,0,1.337,0.598,1.337,1.337l0,0C335.734,254.007,335.135,254.605,334.397,254.605z"/>
					</g>
					<path style="fill:#407BFF;" d="M324.525,215.023l0.872,2.527l4.065-1.403l-12.527,17.43l-7.739-4.872l-8.016,11.824
						l-7.721-0.341l-7.392,11.23c-0.406,0.617-0.235,1.445,0.381,1.852l0,0c0.617,0.406,1.446,0.235,1.852-0.382l6.557-9.962
						l7.698,0.339l7.403-10.92l7.68,4.836l13.731-19.105v4.174h2.673v-10.51L324.525,215.023z"/>
				</g>
				<g>
					<path style="opacity:0.4;fill:#FFFFFF;" d="M407.671,262.858h-56.624c-3.244,0-5.874-2.63-5.874-5.874v-56.624
						c0-3.244,2.63-5.874,5.874-5.874h56.624c3.244,0,5.874,2.63,5.874,5.874v56.624
						C413.545,260.229,410.915,262.858,407.671,262.858z"/>
					<g>
						<path style="fill:#FFFFFF;" d="M405.674,254.605h-52.63c-0.738,0-1.337-0.598-1.337-1.337V206.83
							c0-0.738,0.599-1.337,1.337-1.337l0,0c0.738,0,1.337,0.598,1.337,1.337v43.765c0,0.738,0.599,1.337,1.337,1.337h49.956
							c0.738,0,1.337,0.598,1.337,1.337l0,0C407.01,254.007,406.412,254.605,405.674,254.605z"/>
					</g>
					<g>
						<rect x="353.099" y="241.557" style="fill:#407BFF;" width="7.709" height="11.712"/>
						<rect x="353.099" y="241.557" style="opacity:0.6;fill:#FFFFFF;" width="7.709" height="11.712"/>
					</g>
					<g>
						<rect x="368.518" y="230.525" style="fill:#407BFF;" width="7.709" height="22.744"/>
						<rect x="368.518" y="230.525" style="opacity:0.4;fill:#FFFFFF;" width="7.709" height="22.744"/>
					</g>
					<g>
						<rect x="383.937" y="235.378" style="fill:#407BFF;" width="7.709" height="17.89"/>
						<rect x="383.937" y="235.378" style="opacity:0.2;fill:#FFFFFF;" width="7.709" height="17.89"/>
					</g>
					<rect x="399.355" y="213.924" style="fill:#407BFF;" width="7.709" height="39.344"/>
				</g>
			</g>
		</g>
		<path style="fill:#263238;" d="M259.18,395.987L259.18,395.987c-1.478,0-2.675-1.198-2.675-2.675v-49.54
			c0-1.478,1.198-2.675,2.675-2.675l0,0c1.478,0,2.675,1.198,2.675,2.675v49.54C261.855,394.789,260.658,395.987,259.18,395.987z"/>
	</g>
</g>
<g id="Character">
	<g>
		<g>
			<polygon style="fill:#407BFF;" points="170.614,258.06 166.862,226.736 152.258,215.256 121.324,218.962 125.076,250.286 
				139.679,261.765 			"/>
			<polygon style="opacity:0.5;fill:#FFFFFF;" points="170.614,258.06 166.862,226.736 152.258,215.256 121.324,218.962 
				125.076,250.286 139.679,261.765 			"/>
			<polygon style="opacity:0.5;" points="156.01,246.58 152.258,215.256 166.862,226.736 170.614,258.06 			"/>
			<polygon style="opacity:0.1;" points="170.614,258.06 156.011,246.58 125.076,250.286 139.679,261.765 170.614,258.06 			"/>
		</g>
		<path style="fill:#263238;" d="M156.176,191.522c-0.231,0.546-0.705,0.865-1.067,0.705c-0.362-0.16-0.483-0.766-0.244-1.29
			c0.239-0.525,0.705-0.865,1.066-0.699C156.291,190.404,156.401,190.975,156.176,191.522z"/>
		<path style="fill:#263238;" d="M155.93,190.238c0,0,0.701,0.626,1.167,0.505c0,0-0.555,0.554-1.181-0.076L155.93,190.238z"/>
		<path style="fill:#BA4D3C;" d="M154.72,192.613l0.877,5.45c0,0-1.863,0.388-3.536-1.216L154.72,192.613z"/>
		<polygon style="fill:#CE7A63;" points="139.094,201.124 134.755,206.291 126.502,201.762 134.663,194.068 		"/>
		<path style="opacity:0.2;" d="M136.933,203.697c-1.534-2.624-0.72-4.718-0.72-4.718l1.656,0.339l1.225,1.806L136.933,203.697z"/>
		<polygon style="fill:#CE7A63;" points="119.597,231.954 125.014,228.961 127.59,230.836 133.667,234.154 130.194,238.511 
			126.594,237.176 122.105,234.474 120.325,233.959 		"/>
		<path style="fill:#CE7A63;" d="M125.59,259.051l17.209,81.834l10.338,55.294l-7.097,1.647c0,0-10.103-21.093-14.1-39.397
			c-1.332-6.101-1.751-11.657-2.375-16.254c-0.735-5.411-2.899-9.357-7.5-20.352c-1.276-3.049-2.606-6.243-3.919-9.426
			c-4.011-9.717-7.306-19.468-10.547-24.242c-3.414-5.029-10.752-9.257-6.617-23.394L125.59,259.051z"/>
		<path style="fill:#CE7A63;" d="M116.822,262.296l-23.853,80.149l-17.251,53.541l-7.024-1.933c0,0,1.165-23.359,6.37-41.356
			c1.735-5.999,3.977-10.807,5.618-15.146c1.752-4.633,1.845-8.783,2.936-19.724c0.387-3.885,0.81-8.042,1.246-12.174
			c1.103-10.454,2.851-20.597,2.275-26.339c-0.606-6.047-5.043-13.261,5.326-23.721L116.822,262.296z"/>
		<path style="fill:#263238;" d="M153.56,390.885l2.524,12.68c0.108,0.543,0.514,0.997,1.06,1.177
			c1.423,0.47,4.179,1.354,5.333,1.558c1.294,0.229,4.451,0.35,6.178,0.401c0.693,0.021,1.307,0.496,1.49,1.152l0,0
			c0.219,0.783-0.252,1.552-1.051,1.716l-18.879,3.878c-0.783,0.161-1.594-0.318-1.831-1.08l-5.858-18.851
			c-0.238-0.767,0.191-1.54,0.966-1.74l8.127-2.102C152.477,389.451,153.388,390.019,153.56,390.885z"/>
		<path style="fill:#263238;" d="M78.489,392.062l-3.106,12.55c-0.133,0.538,0.041,1.121,0.459,1.516
			c1.089,1.03,3.207,3.002,4.165,3.677c1.074,0.757,3.88,2.208,5.421,2.989c0.618,0.313,0.972,1.004,0.859,1.676l0,0
			c-0.135,0.802-0.888,1.297-1.681,1.106l-18.737-4.515c-0.777-0.187-1.307-0.965-1.198-1.756l2.711-19.553
			c0.11-0.795,0.827-1.313,1.614-1.164l8.25,1.552C78.118,390.304,78.7,391.206,78.489,392.062z"/>
		<path style="fill:#407BFF;" d="M92.513,244.939c0,0-8.645,12.141-9.5,40.852c-0.855,28.711-0.203,37.655-3.336,45.182
			c0,0,29.117,8.904,62.117-2.534c0,0-9.233-37.058-10.326-49.772c-0.62-7.211-0.291-13.556-4.914-28.683L92.513,244.939z"/>
		<path style="fill:#263238;" d="M154.92,188.332c0.085,0.064,0.194,0.082,0.293,0.049c0.729-0.285,1.555-0.194,2.22,0.246
			c0.137,0.105,0.329,0.082,0.433-0.053c0.1-0.139,0.071-0.337-0.064-0.445c-0.83-0.576-1.877-0.705-2.802-0.347
			c-0.161,0.057-0.245,0.237-0.186,0.403l0,0.001C154.835,188.242,154.872,188.294,154.92,188.332z"/>
		<path style="fill:#CE7A63;" d="M136.129,179.887c-3.391,7.119-4.984,10.061-3.423,15.605c3.386,6.673,11.954,11.179,17.431,5.264
			c4.931-5.32,9.636-16.042,4.344-22.729c-3.774-4.764-10.62-5.664-15.291-2.009C137.877,177.044,136.829,178.369,136.129,179.887z"
			/>
		<path style="opacity:0.1;" d="M112.463,334.108c-0.002-8.231-0.496-49.383-10.085-57.774c0,0,7.051,42.76-1.869,57.79
			C104.154,334.31,108.171,334.338,112.463,334.108z"/>
		<path style="fill:#263238;" d="M132.706,195.491c0,0,2.351-0.554,4.701,3.444l8.875-5.123c0,0,2.674-1.008,3.959-0.869
			c1.285,0.139,1.382-6.104,2.685-7.477c1.303-1.373,2.206-3.749,2.206-3.749s5.877-1.641,4.706-4.718
			c-1.17-3.077-3.835-1.397-5.391-1.755s-13.209-10.251-17.474,0.322C136.973,175.567,127.002,180.132,132.706,195.491z"/>
		<path style="fill:#407BFF;" d="M137.492,179.151c-1.412,1.709-3.943,1.95-5.653,0.538c-1.709-1.413-1.95-3.943-0.537-5.653
			c1.413-1.709,3.943-1.95,5.653-0.538C138.665,174.911,138.905,177.442,137.492,179.151z"/>
		<path style="fill:#263238;" d="M154.002,179.434c0,0,6.773,1.05,5.724,4.163C158.678,186.71,156.965,180.064,154.002,179.434z"/>
		<path style="fill:#263238;" d="M136.883,176.25c-2.763,3.344-7.714,3.815-11.058,1.051c-3.344-2.763-3.815-7.714-1.051-11.058
			c2.763-3.344,7.714-3.814,11.058-1.051S139.646,172.907,136.883,176.25z"/>
		<path style="fill:#263238;" d="M132.437,178.158c0,0-6.8,0.852-5.843,3.995C127.552,185.295,129.456,178.701,132.437,178.158z"/>
		<path style="fill:#CE7A63;" d="M149.388,189.429c0.554,1.543,0.476,3.228-0.217,4.682c-0.934,1.922-3.033,1.436-4.137-0.307
			c-1.001-1.578-1.704-4.467-0.105-5.818C146.527,186.636,148.689,187.549,149.388,189.429z"/>
		<g>
			<path style="fill:#263238;" d="M116.012,199.141c-0.366-0.492-1.047-0.642-1.596-0.369c-1.225,0.609-3.54,2.344-6.454,7.28
				c-3.247,5.5-14.53,19.489-12.542,22.257c1.988,2.768,20.822,7.895,22.794,5.236l2.407,1.989l1.891-6.101l-2.903,0.526
				c0,0-1.348-4.913-13.697-6.58C105.913,223.381,120.963,205.793,116.012,199.141z"/>
			<path style="opacity:0.2;" d="M107.128,212.75l-6.411,8.116c-1.097,1.388-1.79,3.075-1.861,4.843
				c-0.078,1.938,0.615,3.177,4.388-2.042L107.128,212.75z"/>
			<path style="fill:#263238;" d="M90.885,248.132c0,0,9.411,5.208,36.525,5.431c0,0,3.866,0.405,2-4.246
				c0,0,17.288-21.293,18.97-28.803c0.185-0.827-0.059-1.683-0.645-2.296c-3.426-3.589-18.23-18.362-30.991-19.691
				c-0.707-0.074-1.4,0.249-1.838,0.809c-2.35,3.004-10.028,13.778-17.529,34.864C97.378,234.2,85.725,243.098,90.885,248.132z"/>
			<path style="fill:#263238;" d="M123.337,202.069l1.989-2.407l-0.089-0.937c-0.066-0.698,0.627-1.221,1.276-0.955
				c3.043,1.243,10.195,4.52,13.573,9.058c0.472,0.633,0.014,1.532-0.775,1.505l-1.085-0.037l0.187,3.305L123.337,202.069z"/>
			<path style="opacity:0.2;" d="M125.677,201.656c0,0,5.3-1.379,9.603,5.805C135.28,207.461,130.944,205.083,125.677,201.656z"/>
			<path style="opacity:0.2;" d="M140.154,232.75l-2.571-2.74c0,0-5.989,8.25-6.816,17.608c1.573-1.988,4.319-5.515,7.195-9.47
				C139.23,235.125,140.154,232.75,140.154,232.75z"/>
			<path style="fill:#CE7A63;" d="M156.831,251.123l3.977-0.378c1.114-0.106,2.161,0.543,2.562,1.588l0.464,1.208l1.883,3.481
				c0.736,1.362,0.066,3.058-1.402,3.548l-0.762,0.255c-1.02,0.341-2.145-0.012-2.787-0.874l-1.077-1.445
				c-0.093-0.124-0.174-0.258-0.242-0.397l-2.193-4.5l-0.901-0.407L156.831,251.123z"/>
			<path style="fill:#263238;" d="M147.611,219.742c0.492-0.429,1.256-0.161,1.381,0.479c0.318,1.633,0.5,4.854-0.946,10.141
				c-2.26,8.258-4.401,16.84-4.401,16.84s10.82,1.066,11.116,2.886l3.773-0.482l-0.798,5.867l-2.337-1.256
				c0,0-1.361,3.826-15.251,1.573c-9.646-1.564-6.871-14.35-4.275-22.018c1.209-3.571,3.379-6.741,6.22-9.218L147.611,219.742z"/>
			<path style="opacity:0.2;" d="M120.07,245.833c0,0-6.222-6.798-19.363-10.298C100.707,235.535,100.93,242.773,120.07,245.833z"/>
		</g>
	</g>
</g>
<g id="Data_1_">
	<g>
		<path style="fill:#407BFF;" d="M170.18,261.344c-0.51-0.196-0.949-0.541-1.313-1.034c-0.365-0.492-0.623-1.115-0.773-1.869
			c-0.15-0.753-0.15-1.427-0.002-2.022c0.148-0.594,0.421-1.08,0.818-1.457c0.396-0.377,0.885-0.623,1.465-0.739
			c0.58-0.116,1.126-0.075,1.637,0.122c0.51,0.196,0.948,0.541,1.313,1.033c0.365,0.493,0.622,1.116,0.772,1.869
			c0.15,0.754,0.15,1.428,0.002,2.022c-0.149,0.595-0.421,1.081-0.817,1.457c-0.397,0.377-0.885,0.623-1.465,0.739
			C171.236,261.581,170.69,261.54,170.18,261.344z M172.439,259.345c0.171-0.415,0.18-1.006,0.027-1.773
			c-0.152-0.767-0.387-1.309-0.703-1.628c-0.316-0.318-0.688-0.435-1.115-0.35c-0.42,0.084-0.715,0.333-0.886,0.748
			c-0.17,0.416-0.179,1.006-0.027,1.773c0.153,0.767,0.387,1.31,0.703,1.628c0.316,0.319,0.685,0.436,1.105,0.352
			C171.97,260.01,172.269,259.76,172.439,259.345z"/>
		<path style="fill:#407BFF;" d="M165.741,274.76c-0.462-0.292-0.825-0.716-1.086-1.27c-0.262-0.554-0.393-1.215-0.393-1.984
			c0-0.768,0.131-1.429,0.393-1.984c0.262-0.554,0.624-0.977,1.086-1.27c0.462-0.293,0.989-0.439,1.581-0.439
			c0.592,0,1.118,0.146,1.581,0.439c0.462,0.292,0.824,0.716,1.086,1.27c0.262,0.554,0.393,1.216,0.393,1.984
			c0,0.769-0.131,1.43-0.393,1.984c-0.262,0.555-0.624,0.978-1.086,1.27c-0.463,0.293-0.989,0.439-1.581,0.439
			C166.731,275.198,166.204,275.052,165.741,274.76z M168.347,273.24c0.248-0.374,0.372-0.952,0.372-1.734
			c0-0.782-0.124-1.36-0.372-1.734c-0.248-0.374-0.59-0.561-1.025-0.561c-0.428,0-0.767,0.187-1.015,0.561
			c-0.248,0.374-0.372,0.952-0.372,1.734c0,0.782,0.124,1.36,0.372,1.734c0.248,0.374,0.586,0.561,1.015,0.561
			C167.758,273.801,168.099,273.614,168.347,273.24z"/>
		<path style="fill:#407BFF;" d="M190.737,267.997c-0.462-0.292-0.825-0.716-1.086-1.27c-0.262-0.554-0.393-1.215-0.393-1.984
			c0-0.768,0.131-1.429,0.393-1.984c0.262-0.554,0.624-0.977,1.086-1.27c0.462-0.293,0.99-0.439,1.581-0.439
			c0.592,0,1.119,0.146,1.581,0.439c0.462,0.292,0.824,0.716,1.086,1.27c0.261,0.555,0.393,1.216,0.393,1.984
			c0,0.769-0.131,1.43-0.393,1.984c-0.262,0.554-0.624,0.978-1.086,1.27c-0.463,0.293-0.989,0.439-1.581,0.439
			C191.727,268.436,191.2,268.29,190.737,267.997z M193.343,266.477c0.248-0.374,0.372-0.952,0.372-1.734
			c0-0.782-0.124-1.36-0.372-1.734c-0.248-0.374-0.59-0.561-1.025-0.561c-0.428,0-0.767,0.187-1.015,0.561
			c-0.248,0.374-0.372,0.952-0.372,1.734c0,0.782,0.124,1.36,0.372,1.734c0.248,0.374,0.586,0.561,1.015,0.561
			C192.754,267.038,193.095,266.852,193.343,266.477z"/>
		<path style="fill:#407BFF;" d="M183.272,293.186c-0.462-0.292-0.825-0.715-1.086-1.27c-0.262-0.554-0.393-1.215-0.393-1.984
			c0-0.768,0.131-1.429,0.393-1.984c0.262-0.554,0.624-0.977,1.086-1.27c0.462-0.293,0.99-0.439,1.581-0.439
			c0.592,0,1.118,0.146,1.581,0.439c0.462,0.292,0.824,0.716,1.086,1.27c0.261,0.555,0.393,1.216,0.393,1.984
			c0,0.769-0.131,1.43-0.393,1.984c-0.262,0.555-0.624,0.978-1.086,1.27c-0.463,0.293-0.99,0.439-1.581,0.439
			C184.261,293.625,183.734,293.479,183.272,293.186z M185.878,291.667c0.248-0.374,0.372-0.952,0.372-1.734
			c0-0.782-0.124-1.36-0.372-1.734c-0.248-0.374-0.59-0.561-1.025-0.561c-0.428,0-0.767,0.187-1.015,0.561
			c-0.248,0.374-0.372,0.952-0.372,1.734c0,0.782,0.124,1.36,0.372,1.734c0.248,0.374,0.587,0.561,1.015,0.561
			C185.288,292.228,185.63,292.041,185.878,291.667z"/>
		<path style="fill:#407BFF;" d="M194.587,294.86c-0.462-0.292-0.825-0.715-1.086-1.27c-0.262-0.554-0.393-1.215-0.393-1.984
			c0-0.768,0.131-1.429,0.393-1.984c0.262-0.554,0.624-0.977,1.086-1.27c0.462-0.293,0.99-0.439,1.581-0.439
			c0.592,0,1.118,0.146,1.581,0.439c0.462,0.292,0.824,0.716,1.086,1.27c0.262,0.555,0.393,1.216,0.393,1.984
			c0,0.769-0.131,1.43-0.393,1.984c-0.262,0.555-0.624,0.978-1.086,1.27c-0.463,0.293-0.99,0.439-1.581,0.439
			C195.576,295.299,195.049,295.152,194.587,294.86z M197.193,293.34c0.248-0.374,0.372-0.952,0.372-1.734
			c0-0.782-0.124-1.36-0.372-1.734c-0.248-0.374-0.59-0.561-1.025-0.561c-0.428,0-0.767,0.187-1.015,0.561
			c-0.248,0.374-0.372,0.952-0.372,1.734c0,0.782,0.124,1.36,0.372,1.734c0.248,0.374,0.587,0.561,1.015,0.561
			C196.603,293.901,196.944,293.714,197.193,293.34z"/>
		<path style="fill:#407BFF;" d="M200.397,281.588c-0.462-0.292-0.825-0.716-1.086-1.27c-0.262-0.554-0.393-1.215-0.393-1.984
			c0-0.768,0.131-1.429,0.393-1.984c0.262-0.554,0.624-0.978,1.086-1.27c0.462-0.293,0.989-0.439,1.581-0.439
			c0.592,0,1.119,0.146,1.581,0.439c0.462,0.292,0.824,0.716,1.086,1.27c0.262,0.554,0.393,1.216,0.393,1.984
			c0,0.769-0.131,1.43-0.393,1.984c-0.262,0.555-0.624,0.978-1.086,1.27c-0.463,0.293-0.989,0.439-1.581,0.439
			C201.386,282.026,200.859,281.88,200.397,281.588z M203.003,280.068c0.248-0.374,0.372-0.952,0.372-1.734
			c0-0.782-0.124-1.36-0.372-1.734c-0.248-0.374-0.59-0.561-1.025-0.561c-0.428,0-0.766,0.187-1.015,0.561
			c-0.248,0.374-0.372,0.952-0.372,1.734c0,0.782,0.124,1.36,0.372,1.734c0.248,0.374,0.586,0.561,1.015,0.561
			C202.413,280.629,202.755,280.442,203.003,280.068z"/>
		<path style="fill:#407BFF;" d="M173.45,243.137l1.393,7.003l-1.62,0.322l-1.134-5.702l-1.401,0.279l-0.259-1.301L173.45,243.137z"
			/>
		<path style="fill:#407BFF;" d="M180.868,267.936v7.14h-1.652v-5.814h-1.428v-1.326H180.868z"/>
		<path style="fill:#407BFF;" d="M191.701,275.558v7.14h-1.652v-5.814h-1.428v-1.326H191.701z"/>
		<path style="fill:#407BFF;" d="M209.867,287.361v7.14h-1.652v-5.814h-1.428v-1.326H209.867z"/>
		<path style="fill:#407BFF;" d="M177.788,290.055v7.14h-1.652v-5.814h-1.428v-1.326H177.788z"/>
		<path style="fill:#407BFF;" d="M189.453,298.108v7.14h-1.652v-5.814h-1.428v-1.326H189.453z"/>
		<path style="fill:#407BFF;" d="M174.843,278.703l-1.393,7.003l-1.621-0.322l1.134-5.702l-1.401-0.279l0.259-1.301L174.843,278.703
			z"/>
		<path style="fill:#407BFF;" d="M183.781,255.34l1.393,7.003l-1.621,0.322l-1.134-5.702l-1.401,0.279l-0.259-1.301L183.781,255.34z
			"/>
		<path style="fill:#407BFF;" d="M165.445,248.307c-0.534,0.12-1.089,0.077-1.666-0.13c-0.577-0.207-1.137-0.581-1.681-1.125
			c-0.543-0.543-0.918-1.103-1.125-1.681c-0.207-0.577-0.25-1.132-0.13-1.666c0.12-0.534,0.389-1.01,0.808-1.428
			c0.419-0.419,0.894-0.688,1.428-0.808c0.533-0.12,1.089-0.077,1.666,0.13c0.577,0.207,1.137,0.582,1.68,1.125
			c0.544,0.544,0.918,1.104,1.125,1.68c0.207,0.577,0.25,1.133,0.13,1.666c-0.12,0.534-0.389,1.01-0.808,1.428
			C166.455,247.917,165.979,248.186,165.445,248.307z M166.213,245.389c-0.089-0.44-0.41-0.936-0.963-1.489
			c-0.553-0.553-1.049-0.874-1.489-0.963c-0.44-0.089-0.814,0.021-1.121,0.328c-0.303,0.303-0.41,0.674-0.321,1.114
			c0.089,0.44,0.41,0.937,0.963,1.489c0.553,0.553,1.049,0.874,1.489,0.963c0.44,0.089,0.812-0.018,1.114-0.321
			C166.193,246.203,166.302,245.829,166.213,245.389z"/>
	</g>
</g>
</svg>
