<?xml version="1.0" encoding="utf-8"?>
<!-- Generator: Adobe Illustrator 27.5.0, SVG Export Plug-In . SVG Version: 6.00 Build 0)  -->
<svg version="1.1" xmlns="http://www.w3.org/2000/svg" xmlns:xlink="http://www.w3.org/1999/xlink" x="0px" y="0px"
	 viewBox="0 0 682.04 500" style="enable-background:new 0 0 682.04 500;" xml:space="preserve">
<g id="BACKGROUND">
	<rect style="fill:#FFFFFF;" width="682.04" height="500"/>
</g>
<g id="OBJECTS">
	<path style="fill:#E0E0E0;" d="M611.769,253.164c1.658,51.304-0.974,105.769-27.221,148.786
		c-12.024,19.708-23.422,28.578-46.444,34.51c-21.623,5.571-44.679,10.918-66.915,12.001c-71.724,3.492-143.589,1.296-215.365-0.9
		c-52.895-1.619-127.272,3.136-160.871-47.382c-10.342-15.55-15.593-33.9-19.479-52.166c-6.67-31.359-9.752-63.393-11.108-95.425
		c-2.248-53.075,2.125-111.274,38.037-150.419c37.625-41.012,98.548-49.09,154.16-51.321c56.052-2.249,112.238-1.158,168.162,3.26
		c46.154,3.646,98.899,3.248,137.067,33.538c37.515,29.772,45.605,77.839,47.973,122.955
		C610.484,224.311,611.299,238.61,611.769,253.164z"/>
	<g>
		<g style="opacity:0.55;">
			<g>
				<g>
					<path style="fill:#A3A3A3;" d="M142.828,85.488c-2.218,0.438-4.358,1.084-6.398,1.921c0.124,0.158,0.259,0.301,0.368,0.474
						c1.672,2.672,0.86,6.194-1.812,7.866c-2.673,1.672-6.195,0.861-7.866-1.812c-0.118-0.189-0.196-0.389-0.289-0.585
						c-1.687,1.473-3.229,3.106-4.602,4.875c0.197,0.078,0.399,0.139,0.591,0.241c2.784,1.478,3.843,4.934,2.364,7.718
						c-1.478,2.784-4.934,3.842-7.718,2.364c-0.218-0.116-0.406-0.264-0.603-0.403c-0.727,2.109-1.254,4.307-1.562,6.574
						c0.234-0.038,0.464-0.088,0.707-0.097c3.15-0.111,5.795,2.352,5.906,5.502c0.112,3.151-2.352,5.795-5.502,5.907
						c-0.276,0.01-0.543-0.024-0.81-0.053c0.436,2.269,1.091,4.456,1.944,6.539c0.205-0.173,0.406-0.35,0.641-0.497
						c2.673-1.672,6.194-0.86,7.866,1.812c1.672,2.673,0.861,6.194-1.812,7.866c-0.254,0.159-0.522,0.275-0.789,0.39
						c1.505,1.732,3.176,3.313,4.992,4.715c0.095-0.272,0.19-0.544,0.329-0.806c1.479-2.784,4.934-3.842,7.718-2.364
						c2.784,1.478,3.842,4.934,2.364,7.718c-0.15,0.281-0.332,0.533-0.519,0.778c2.153,0.74,4.4,1.272,6.716,1.575
						c-0.057-0.293-0.111-0.587-0.122-0.895c-0.112-3.15,2.352-5.794,5.502-5.906c3.15-0.111,5.795,2.352,5.907,5.502
						c0.011,0.322-0.021,0.633-0.062,0.942c2.293-0.451,4.501-1.127,6.603-2.004c-0.196-0.225-0.39-0.452-0.553-0.713
						c-1.672-2.673-0.86-6.195,1.812-7.866c2.672-1.672,6.194-0.861,7.866,1.812c0.164,0.262,0.285,0.537,0.402,0.814
						c1.723-1.516,3.291-3.2,4.683-5.025c-0.265-0.094-0.53-0.185-0.785-0.321c-2.784-1.479-3.843-4.934-2.364-7.718
						c1.478-2.784,4.934-3.842,7.718-2.364c0.254,0.135,0.477,0.303,0.702,0.469c0.717-2.133,1.231-4.357,1.52-6.647
						c-0.252,0.043-0.501,0.095-0.764,0.104c-3.15,0.112-5.795-2.352-5.906-5.502c-0.111-3.15,2.352-5.795,5.502-5.906
						c0.257-0.009,0.503,0.025,0.752,0.049c-0.452-2.243-1.119-4.404-1.98-6.462c-0.179,0.144-0.347,0.299-0.547,0.424
						c-2.672,1.672-6.194,0.86-7.866-1.812c-1.672-2.672-0.861-6.194,1.812-7.866c0.197-0.123,0.405-0.204,0.609-0.301
						c-1.484-1.679-3.128-3.211-4.907-4.573c-0.076,0.192-0.135,0.388-0.235,0.574c-1.479,2.784-4.934,3.842-7.718,2.364
						c-2.784-1.478-3.842-4.934-2.364-7.718c0.101-0.191,0.233-0.353,0.352-0.527c-2.089-0.705-4.264-1.212-6.505-1.507
						c0.026,0.192,0.072,0.378,0.079,0.576c0.112,3.15-2.352,5.794-5.502,5.906c-3.15,0.111-5.795-2.352-5.906-5.502
						C142.78,85.897,142.812,85.695,142.828,85.488z M148.725,96.174c12.839-0.455,23.615,9.585,24.069,22.423
						c0.454,12.838-9.585,23.615-22.423,24.069c-12.839,0.454-23.615-9.585-24.069-22.423
						C125.848,107.405,135.887,96.628,148.725,96.174z"/>
				</g>
			</g>
		</g>
		<g style="opacity:0.55;">
			<g>
				<g>
					<path style="fill:#A3A3A3;" d="M521.208,80.361c-3.178,0.628-6.244,1.553-9.166,2.753c0.177,0.226,0.371,0.431,0.527,0.68
						c2.395,3.829,1.233,8.875-2.596,11.271c-3.83,2.396-8.876,1.233-11.271-2.596c-0.169-0.27-0.28-0.558-0.414-0.838
						c-2.417,2.111-4.626,4.45-6.593,6.985c0.283,0.112,0.571,0.2,0.847,0.346c3.989,2.118,5.506,7.069,3.387,11.059
						c-2.118,3.989-7.07,5.505-11.059,3.387c-0.313-0.166-0.582-0.378-0.864-0.577c-1.042,3.022-1.797,6.172-2.238,9.419
						c0.336-0.055,0.665-0.126,1.013-0.139c4.514-0.16,8.303,3.37,8.462,7.883c0.16,4.514-3.37,8.303-7.884,8.463
						c-0.396,0.014-0.778-0.035-1.16-0.076c0.624,3.251,1.564,6.384,2.785,9.368c0.294-0.248,0.582-0.502,0.918-0.712
						c3.829-2.395,8.875-1.233,11.271,2.596c2.396,3.829,1.233,8.875-2.596,11.271c-0.364,0.228-0.748,0.394-1.131,0.558
						c2.157,2.481,4.551,4.747,7.152,6.756c0.136-0.389,0.272-0.779,0.471-1.154c2.119-3.989,7.07-5.505,11.059-3.387
						c3.989,2.118,5.505,7.07,3.387,11.059c-0.214,0.403-0.476,0.763-0.744,1.115c3.085,1.06,6.304,1.823,9.622,2.256
						c-0.082-0.42-0.16-0.842-0.175-1.283c-0.16-4.514,3.37-8.302,7.884-8.462c4.514-0.16,8.303,3.37,8.463,7.883
						c0.016,0.461-0.03,0.907-0.088,1.35c3.286-0.646,6.449-1.615,9.461-2.871c-0.28-0.322-0.558-0.648-0.792-1.021
						c-2.396-3.829-1.233-8.875,2.596-11.271c3.829-2.396,8.875-1.233,11.271,2.596c0.235,0.376,0.408,0.77,0.576,1.166
						c2.468-2.173,4.716-4.584,6.709-7.199c-0.379-0.134-0.759-0.265-1.124-0.459c-3.989-2.119-5.506-7.07-3.387-11.059
						c2.118-3.989,7.069-5.505,11.059-3.387c0.364,0.194,0.684,0.434,1.005,0.671c1.028-3.056,1.763-6.242,2.178-9.524
						c-0.361,0.062-0.718,0.136-1.095,0.15c-4.514,0.16-8.303-3.37-8.463-7.884c-0.16-4.514,3.37-8.303,7.884-8.462
						c0.368-0.013,0.721,0.035,1.078,0.07c-0.648-3.213-1.604-6.31-2.838-9.259c-0.256,0.207-0.497,0.428-0.783,0.607
						c-3.829,2.395-8.875,1.233-11.271-2.596c-2.395-3.829-1.233-8.875,2.596-11.271c0.281-0.176,0.58-0.293,0.873-0.431
						c-2.127-2.405-4.481-4.6-7.03-6.552c-0.109,0.275-0.194,0.555-0.336,0.823c-2.119,3.989-7.07,5.505-11.059,3.387
						c-3.989-2.118-5.505-7.069-3.386-11.059c0.145-0.273,0.334-0.505,0.504-0.755c-2.993-1.01-6.11-1.737-9.32-2.159
						c0.038,0.275,0.103,0.542,0.113,0.826c0.16,4.514-3.37,8.302-7.884,8.462c-4.514,0.16-8.302-3.37-8.462-7.883
						C521.139,80.947,521.186,80.658,521.208,80.361z M529.657,95.672c18.395-0.651,33.835,13.733,34.486,32.128
						c0.651,18.395-13.733,33.835-32.128,34.486c-18.395,0.651-33.835-13.733-34.486-32.128
						C496.879,111.763,511.263,96.323,529.657,95.672z"/>
				</g>
			</g>
		</g>
		<g style="opacity:0.55;">
			<g>
				<g>
					<path style="fill:#A3A3A3;" d="M344.884,216.809c-4.212,0.832-8.275,2.058-12.148,3.648c0.235,0.299,0.492,0.571,0.698,0.901
						c3.174,5.075,1.634,11.762-3.441,14.937c-5.075,3.175-11.763,1.634-14.937-3.441c-0.224-0.358-0.371-0.739-0.549-1.111
						c-3.203,2.798-6.132,5.898-8.738,9.258c0.375,0.149,0.757,0.265,1.122,0.459c5.287,2.807,7.297,9.369,4.489,14.656
						c-2.807,5.286-9.369,7.296-14.656,4.488c-0.414-0.22-0.771-0.501-1.145-0.764c-1.381,4.005-2.382,8.179-2.966,12.482
						c0.445-0.072,0.881-0.167,1.343-0.184c5.982-0.212,11.004,4.466,11.215,10.448c0.212,5.982-4.466,11.004-10.448,11.216
						c-0.525,0.018-1.031-0.046-1.538-0.1c0.827,4.308,2.072,8.461,3.691,12.416c0.39-0.328,0.772-0.665,1.217-0.943
						c5.075-3.174,11.762-1.634,14.937,3.441c3.175,5.075,1.634,11.763-3.44,14.937c-0.483,0.302-0.991,0.522-1.499,0.74
						c2.859,3.288,6.031,6.292,9.479,8.954c0.18-0.516,0.36-1.032,0.625-1.53c2.808-5.286,9.37-7.296,14.656-4.488
						c5.287,2.807,7.296,9.369,4.489,14.656c-0.284,0.534-0.631,1.012-0.986,1.477c4.089,1.405,8.354,2.416,12.753,2.99
						c-0.109-0.556-0.211-1.116-0.232-1.7c-0.212-5.982,4.466-11.003,10.448-11.215c5.982-0.212,11.004,4.466,11.216,10.448
						c0.022,0.611-0.04,1.202-0.117,1.789c4.355-0.855,8.547-2.14,12.539-3.805c-0.372-0.427-0.74-0.859-1.05-1.354
						c-3.175-5.075-1.634-11.763,3.441-14.937c5.075-3.175,11.762-1.634,14.937,3.441c0.311,0.498,0.541,1.021,0.763,1.545
						c3.271-2.879,6.25-6.076,8.892-9.541c-0.502-0.178-1.006-0.352-1.49-0.609c-5.287-2.808-7.297-9.37-4.488-14.656
						c2.807-5.287,9.369-7.296,14.656-4.489c0.482,0.257,0.906,0.575,1.332,0.89c1.362-4.051,2.337-8.273,2.886-12.622
						c-0.479,0.082-0.952,0.181-1.451,0.198c-5.982,0.212-11.004-4.466-11.216-10.448c-0.212-5.982,4.467-11.004,10.448-11.215
						c0.488-0.018,0.956,0.047,1.429,0.093c-0.859-4.258-2.126-8.362-3.761-12.271c-0.34,0.274-0.658,0.567-1.038,0.805
						c-5.075,3.175-11.762,1.634-14.937-3.441c-3.174-5.074-1.634-11.762,3.441-14.937c0.373-0.233,0.769-0.388,1.157-0.571
						c-2.818-3.188-5.939-6.097-9.317-8.684c-0.145,0.364-0.257,0.736-0.445,1.091c-2.808,5.287-9.37,7.296-14.656,4.488
						c-5.287-2.808-7.296-9.369-4.488-14.656c0.192-0.362,0.442-0.669,0.668-1.001c-3.966-1.338-8.098-2.302-12.352-2.861
						c0.05,0.365,0.136,0.718,0.149,1.094c0.212,5.982-4.466,11.003-10.448,11.215c-5.982,0.212-11.003-4.466-11.215-10.448
						C344.793,217.585,344.855,217.202,344.884,216.809z M356.083,237.1c24.379-0.863,44.842,18.2,45.705,42.579
						c0.863,24.379-18.2,44.841-42.579,45.705c-24.379,0.863-44.841-18.2-45.705-42.579
						C312.641,258.425,331.704,237.962,356.083,237.1z"/>
				</g>
			</g>
		</g>
		<g>
			<g>
				
					<rect x="205.256" y="70.982" transform="matrix(0.0074 -1 1 0.0074 156.8994 308.7123)" style="fill:#A2C3BF;" width="57.404" height="8.677"/>
				
					<rect x="229.25" y="75.798" transform="matrix(0.0074 -1 1 0.0074 171.2616 332.8139)" style="fill:#70A1BD;" width="48.059" height="8.677"/>
				
					<rect x="251.257" y="78.612" transform="matrix(0.0074 -1 1 0.0074 187.6408 354.9429)" style="fill:#FF7575;" width="42.719" height="8.677"/>
				
					<rect x="279.501" y="89.092" transform="matrix(0.0074 -1 1 0.0074 194.9278 383.2425)" style="fill:#C13F4F;" width="22.027" height="8.677"/>
			</g>
			<line style="fill:none;stroke:#1B2258;stroke-miterlimit:10;" x1="222.168" y1="104.759" x2="311.054" y2="105.42"/>
		</g>
		<g>
			<g>
				<g>
					<g>
						<path style="fill:#1B2258;" d="M141.204,210.333c-1.015,0.2-1.995,0.496-2.928,0.879c0.056,0.072,0.119,0.138,0.168,0.217
							c0.765,1.223,0.394,2.835-0.829,3.601c-1.223,0.765-2.835,0.394-3.601-0.829c-0.054-0.086-0.09-0.178-0.132-0.268
							c-0.772,0.674-1.478,1.422-2.106,2.232c0.09,0.036,0.183,0.064,0.271,0.111c1.274,0.677,1.759,2.258,1.082,3.533
							c-0.677,1.274-2.258,1.759-3.533,1.082c-0.1-0.053-0.186-0.121-0.276-0.184c-0.333,0.965-0.574,1.972-0.715,3.009
							c0.107-0.017,0.212-0.04,0.324-0.044c1.442-0.051,2.652,1.076,2.704,2.518c0.051,1.442-1.077,2.653-2.519,2.704
							c-0.127,0.004-0.248-0.011-0.371-0.024c0.199,1.038,0.5,2.04,0.89,2.993c0.094-0.079,0.186-0.16,0.293-0.227
							c1.223-0.765,2.835-0.394,3.601,0.829c0.765,1.223,0.394,2.835-0.829,3.601c-0.116,0.073-0.239,0.126-0.361,0.178
							c0.689,0.793,1.454,1.517,2.285,2.158c0.043-0.124,0.087-0.249,0.151-0.369c0.677-1.274,2.259-1.759,3.533-1.082
							c1.274,0.677,1.759,2.258,1.082,3.533c-0.068,0.129-0.152,0.244-0.238,0.356c0.986,0.339,2.014,0.583,3.074,0.721
							c-0.026-0.134-0.051-0.269-0.056-0.41c-0.051-1.442,1.077-2.652,2.519-2.703c1.442-0.051,2.653,1.076,2.704,2.518
							c0.005,0.147-0.01,0.29-0.028,0.431c1.05-0.206,2.06-0.516,3.023-0.917c-0.09-0.103-0.178-0.207-0.253-0.326
							c-0.765-1.223-0.394-2.835,0.829-3.601c1.223-0.765,2.835-0.394,3.601,0.829c0.075,0.12,0.13,0.246,0.184,0.372
							c0.788-0.694,1.507-1.464,2.143-2.3c-0.121-0.043-0.243-0.085-0.359-0.147c-1.274-0.677-1.759-2.259-1.082-3.533
							c0.677-1.274,2.258-1.759,3.533-1.082c0.116,0.062,0.218,0.139,0.321,0.215c0.328-0.977,0.563-1.994,0.696-3.043
							c-0.115,0.02-0.23,0.044-0.35,0.048c-1.442,0.051-2.652-1.076-2.704-2.519c-0.051-1.442,1.077-2.652,2.519-2.703
							c0.118-0.004,0.23,0.011,0.344,0.022c-0.207-1.027-0.512-2.016-0.907-2.958c-0.082,0.066-0.159,0.137-0.25,0.194
							c-1.223,0.765-2.835,0.394-3.601-0.829c-0.765-1.223-0.394-2.835,0.829-3.601c0.09-0.056,0.185-0.094,0.279-0.137
							c-0.679-0.768-1.432-1.47-2.246-2.093c-0.035,0.088-0.062,0.178-0.107,0.263c-0.677,1.274-2.259,1.759-3.533,1.082
							c-1.274-0.677-1.759-2.258-1.082-3.533c0.046-0.087,0.107-0.161,0.161-0.241c-0.956-0.323-1.952-0.555-2.978-0.69
							c0.012,0.088,0.033,0.173,0.036,0.264c0.051,1.442-1.077,2.652-2.519,2.703c-1.442,0.051-2.652-1.076-2.704-2.518
							C141.182,210.52,141.197,210.428,141.204,210.333z M143.903,215.224c5.877-0.208,10.809,4.387,11.017,10.264
							c0.208,5.877-4.387,10.809-10.264,11.017c-5.877,0.208-10.809-4.387-11.017-10.264
							C133.431,220.365,138.026,215.432,143.903,215.224z"/>
					</g>
					<path style="fill:#1B2258;" d="M141.894,237.723c6.539,1.321,12.934-2.925,14.255-9.465c1.321-6.539-2.924-12.934-9.464-14.255
						c-6.54-1.321-12.934,2.924-14.255,9.464C131.109,230.006,135.355,236.402,141.894,237.723z M136.322,224.253
						c0.887-4.393,5.184-7.245,9.577-6.358c4.393,0.887,7.245,5.183,6.358,9.577c-0.887,4.393-5.184,7.246-9.577,6.359
						C138.287,232.943,135.435,228.647,136.322,224.253z"/>
				</g>
			</g>
			<g>
				<g>
					<g>
						<path style="fill:#5DA5C7;" d="M95.356,197.954c-1.885,0.372-3.704,0.921-5.438,1.633c0.105,0.134,0.22,0.256,0.313,0.403
							c1.421,2.272,0.731,5.265-1.54,6.686c-2.272,1.421-5.265,0.731-6.686-1.54c-0.1-0.16-0.166-0.331-0.245-0.497
							c-1.434,1.253-2.745,2.64-3.911,4.144c0.168,0.066,0.339,0.118,0.502,0.205c2.366,1.257,3.266,4.194,2.009,6.56
							c-1.257,2.367-4.194,3.266-6.56,2.009c-0.186-0.098-0.345-0.224-0.513-0.342c-0.618,1.793-1.066,3.661-1.328,5.587
							c0.199-0.032,0.395-0.075,0.601-0.082c2.678-0.095,4.925,1.999,5.02,4.677c0.095,2.678-1.999,4.926-4.677,5.02
							c-0.235,0.008-0.461-0.021-0.688-0.045c0.37,1.928,0.927,3.787,1.652,5.558c0.174-0.147,0.345-0.298,0.545-0.422
							c2.272-1.421,5.265-0.731,6.686,1.54c1.421,2.272,0.732,5.265-1.54,6.686c-0.216,0.135-0.443,0.234-0.671,0.331
							c1.28,1.472,2.7,2.816,4.243,4.008c0.08-0.231,0.161-0.462,0.279-0.685c1.257-2.366,4.194-3.266,6.561-2.009
							c2.366,1.257,3.266,4.194,2.009,6.561c-0.127,0.239-0.282,0.453-0.441,0.661c1.83,0.629,3.74,1.082,5.708,1.339
							c-0.049-0.249-0.095-0.499-0.104-0.761c-0.095-2.678,1.999-4.925,4.677-5.02c2.678-0.095,4.926,1.999,5.02,4.677
							c0.01,0.273-0.018,0.538-0.052,0.801c1.949-0.383,3.826-0.958,5.613-1.703c-0.166-0.191-0.331-0.384-0.47-0.606
							c-1.421-2.272-0.731-5.265,1.54-6.686c2.272-1.421,5.265-0.732,6.686,1.54c0.14,0.223,0.242,0.457,0.341,0.691
							c1.464-1.289,2.798-2.72,3.98-4.271c-0.225-0.08-0.45-0.157-0.667-0.273c-2.367-1.257-3.266-4.194-2.009-6.56
							c1.257-2.367,4.194-3.266,6.56-2.009c0.216,0.115,0.406,0.257,0.597,0.398c0.61-1.813,1.046-3.703,1.292-5.65
							c-0.214,0.037-0.426,0.081-0.65,0.089c-2.678,0.095-4.925-1.999-5.02-4.677c-0.095-2.678,1.999-4.925,4.677-5.02
							c0.218-0.008,0.428,0.021,0.639,0.042c-0.385-1.906-0.951-3.743-1.684-5.493c-0.152,0.123-0.295,0.254-0.464,0.36
							c-2.272,1.421-5.265,0.731-6.686-1.54c-1.421-2.271-0.731-5.265,1.54-6.686c0.167-0.104,0.344-0.174,0.518-0.256
							c-1.262-1.427-2.659-2.729-4.171-3.887c-0.065,0.163-0.115,0.329-0.199,0.488c-1.257,2.366-4.194,3.266-6.561,2.009
							c-2.366-1.257-3.266-4.194-2.009-6.561c0.086-0.162,0.198-0.3,0.299-0.448c-1.776-0.599-3.625-1.03-5.529-1.281
							c0.023,0.163,0.061,0.321,0.067,0.49c0.095,2.678-1.999,4.925-4.677,5.02c-2.678,0.095-4.925-1.999-5.02-4.677
							C95.315,198.302,95.343,198.13,95.356,197.954z M100.369,207.037c10.913-0.386,20.072,8.147,20.459,19.059
							c0.386,10.912-8.147,20.072-19.059,20.459c-10.913,0.386-20.072-8.147-20.459-19.059
							C80.923,216.583,89.456,207.423,100.369,207.037z"/>
					</g>
					<path style="fill:none;stroke:#2D2D2D;stroke-linecap:round;stroke-miterlimit:10;" d="M96.639,248.816
						c12.143,2.453,24.018-5.432,26.471-17.576c2.453-12.143-5.43-24.018-17.574-26.471c-12.144-2.453-24.018,5.43-26.472,17.574
						C76.612,234.487,84.495,246.363,96.639,248.816z M86.292,223.804c1.648-8.158,9.626-13.454,17.784-11.806
						c8.158,1.648,13.454,9.625,11.806,17.784c-1.648,8.158-9.626,13.455-17.784,11.807S84.644,231.962,86.292,223.804z"/>
				</g>
			</g>
		</g>
		<path style="fill:none;stroke:#222540;stroke-miterlimit:10;" d="M69.223,275.972c2.714-2.959,7.313-3.158,10.273-0.444
			c2.959,2.714,3.158,7.314,0.444,10.273"/>
		<g>
			<g>
				<circle style="fill:#E3A81E;" cx="455.717" cy="99.548" r="18.198"/>
				<g>
					<path style="fill:#1B2258;" d="M454.655,109.585c-0.095,0.019-0.17,0.028-0.226,0.028c-0.057,0-0.113,0-0.169,0
						c-0.584,0-1.111-0.019-1.582-0.057c-0.471-0.038-0.908-0.094-1.313-0.169c-0.405-0.076-0.796-0.17-1.172-0.283
						c-0.377-0.113-0.763-0.235-1.158-0.367c0.037-0.414,0.117-0.833,0.24-1.256c0.122-0.424,0.259-0.833,0.41-1.229
						c0.64,0.207,1.299,0.391,1.977,0.551c0.678,0.16,1.497,0.24,2.457,0.24c1.544,0,2.692-0.301,3.445-0.904
						c0.753-0.602,1.129-1.43,1.129-2.485c0-0.527-0.08-0.969-0.24-1.327c-0.16-0.358-0.4-0.668-0.72-0.932
						c-0.32-0.264-0.725-0.504-1.214-0.72c-0.49-0.216-1.064-0.466-1.723-0.748l-1.355-0.565c-0.565-0.226-1.083-0.48-1.553-0.762
						c-0.471-0.282-0.881-0.616-1.229-1.003c-0.349-0.386-0.617-0.842-0.805-1.37c-0.188-0.527-0.282-1.158-0.282-1.892
						c0-1.45,0.438-2.636,1.313-3.558c0.875-0.922,2.132-1.497,3.77-1.723v-2.739c0.283-0.075,0.602-0.113,0.96-0.113
						c0.376,0,0.715,0.038,1.016,0.113v2.626c0.791,0.038,1.568,0.123,2.33,0.254c0.763,0.132,1.416,0.301,1.963,0.508
						c-0.095,0.791-0.302,1.572-0.621,2.344c-0.509-0.188-1.092-0.353-1.751-0.494c-0.659-0.141-1.422-0.212-2.288-0.212
						c-1.186,0-2.099,0.226-2.739,0.678c-0.64,0.452-0.96,1.149-0.96,2.09c0,0.452,0.085,0.843,0.254,1.172
						c0.17,0.33,0.419,0.621,0.748,0.875c0.329,0.254,0.724,0.485,1.186,0.692c0.461,0.207,0.983,0.433,1.567,0.678l1.073,0.452
						c0.678,0.282,1.289,0.574,1.836,0.875c0.546,0.301,1.012,0.659,1.398,1.073c0.386,0.415,0.687,0.904,0.904,1.469
						c0.216,0.565,0.325,1.252,0.325,2.061c0,1.601-0.456,2.904-1.37,3.911c-0.913,1.007-2.198,1.671-3.855,1.991v3.248
						c-0.151,0.037-0.311,0.066-0.48,0.085c-0.169,0.019-0.329,0.028-0.48,0.028c-0.169,0-0.339-0.01-0.509-0.028
						c-0.17-0.019-0.339-0.047-0.508-0.085V109.585z"/>
				</g>
			</g>
			<g>
				
					<ellipse transform="matrix(0.1616 -0.9868 0.9868 0.1616 245.5561 515.5797)" style="fill:#FFFFFF;" cx="426.23" cy="113.264" rx="20.441" ry="20.441"/>
				<g>
					<path style="fill:#C13F4F;" d="M425.036,124.538c-0.106,0.021-0.19,0.032-0.254,0.032c-0.064,0-0.127,0-0.19,0
						c-0.656,0-1.248-0.021-1.776-0.064c-0.529-0.043-1.02-0.106-1.475-0.19c-0.455-0.085-0.894-0.19-1.316-0.317
						c-0.423-0.127-0.857-0.264-1.301-0.412c0.042-0.465,0.132-0.936,0.269-1.411c0.137-0.476,0.29-0.936,0.46-1.38
						c0.719,0.233,1.459,0.439,2.221,0.619c0.761,0.18,1.681,0.27,2.759,0.27c1.734,0,3.024-0.338,3.87-1.015
						c0.845-0.676,1.269-1.607,1.269-2.791c0-0.592-0.09-1.089-0.27-1.491c-0.18-0.402-0.45-0.75-0.809-1.047
						c-0.36-0.296-0.814-0.565-1.364-0.809c-0.55-0.243-1.195-0.523-1.935-0.841l-1.522-0.634c-0.634-0.254-1.216-0.539-1.745-0.856
						c-0.529-0.317-0.989-0.692-1.38-1.126c-0.392-0.433-0.693-0.946-0.904-1.538c-0.211-0.592-0.317-1.3-0.317-2.125
						c0-1.628,0.491-2.961,1.475-3.997c0.983-1.036,2.395-1.681,4.234-1.935v-3.077c0.317-0.084,0.676-0.127,1.079-0.127
						c0.423,0,0.803,0.043,1.142,0.127v2.95c0.888,0.043,1.761,0.138,2.617,0.285c0.857,0.148,1.591,0.339,2.205,0.571
						c-0.106,0.888-0.339,1.766-0.698,2.633c-0.571-0.211-1.227-0.397-1.967-0.555c-0.741-0.159-1.597-0.238-2.569-0.238
						c-1.332,0-2.358,0.254-3.077,0.761c-0.719,0.507-1.078,1.29-1.078,2.347c0,0.507,0.095,0.947,0.285,1.316
						c0.19,0.37,0.47,0.698,0.84,0.983c0.37,0.285,0.814,0.545,1.332,0.777c0.518,0.233,1.104,0.487,1.76,0.761l1.205,0.507
						c0.761,0.317,1.448,0.645,2.062,0.983c0.613,0.339,1.137,0.741,1.57,1.205c0.433,0.465,0.772,1.015,1.015,1.649
						c0.243,0.634,0.365,1.406,0.365,2.315c0,1.798-0.513,3.262-1.538,4.393c-1.026,1.131-2.469,1.877-4.33,2.236v3.648
						c-0.169,0.042-0.349,0.074-0.539,0.095c-0.19,0.021-0.37,0.032-0.539,0.032c-0.19,0-0.381-0.011-0.571-0.032
						c-0.19-0.021-0.38-0.053-0.571-0.095V124.538z"/>
				</g>
			</g>
		</g>
		<path style="fill:none;stroke:#222540;stroke-miterlimit:10;" d="M108.881,174.76c0,1.874-1.519,3.393-3.393,3.393
			c-1.874,0-3.393-1.519-3.393-3.393s1.519-3.393,3.393-3.393C107.362,171.367,108.881,172.886,108.881,174.76z"/>
		<g>
			<g>
				<polyline style="fill:none;stroke:#1B2258;stroke-miterlimit:10;" points="126.326,157.71 145.195,133.266 167.495,174.435 
					178.646,139.698 193.725,155.959 210.66,118.164 228.393,169.289 				"/>
				<path style="fill:#5DA5C7;" d="M218.428,168.217c0,5.622,4.557,10.179,10.179,10.179c5.621,0,10.178-4.557,10.178-10.179
					c0-5.621-4.557-10.178-10.178-10.178C222.986,158.038,218.428,162.596,218.428,168.217z"/>
				<path style="fill:#C13F4F;" d="M183.825,140.342c0,2.979-2.415,5.394-5.394,5.394c-2.979,0-5.394-2.415-5.394-5.394
					c0-2.979,2.415-5.394,5.394-5.394C181.41,134.947,183.825,137.363,183.825,140.342z"/>
				<circle style="fill:#5DA5C7;" cx="126.969" cy="157.496" r="4.932"/>
				<path style="fill:#C13F4F;" d="M154.201,134.123c0,5.211-4.224,9.435-9.435,9.435c-5.211,0-9.435-4.224-9.435-9.435
					c0-5.211,4.224-9.435,9.435-9.435C149.977,124.688,154.201,128.913,154.201,134.123z"/>
				
					<ellipse transform="matrix(0.3827 -0.9239 0.9239 0.3827 21.0608 266.9995)" style="fill:#C13F4F;" cx="210.327" cy="117.74" rx="7.934" ry="7.934"/>
				<path style="fill:#5DA5C7;" d="M187,157.749c0-3.893,3.156-7.049,7.049-7.049c3.893,0,7.049,3.156,7.049,7.049
					c0,3.893-3.156,7.049-7.049,7.049C190.156,164.799,187,161.643,187,157.749z"/>
				<circle style="fill:#E3A81E;" cx="167.495" cy="172.482" r="6.267"/>
			</g>
			<path style="fill:none;stroke:#222540;stroke-miterlimit:10;" d="M260.966,156.042c2.224-2.575,6.115-2.86,8.691-0.636
				c2.576,2.224,2.86,6.115,0.636,8.69"/>
			<circle style="fill:none;stroke:#222540;stroke-miterlimit:10;" cx="278.438" cy="181.292" r="5.883"/>
		</g>
		<g>
			<path style="fill:#D98C73;" d="M526.121,413.646c-0.111,0.357-0.233,0.731-0.52,1.003c-0.321,0.304-0.787,0.422-1.227,0.523
				c-3.802,0.874-7.643,1.56-11.497,2.053c1.22-9.792,0.824-19.85,4.718-29.208c0.575-1.382,1.262-2.768,2.371-3.867
				c1.831-1.815,4.675-2.614,7.23-2.307c2.027,0.243,6.043,1.674,6.602,3.696c0.611,2.212-1.666,7.016-2.277,9.326
				C529.859,401.149,528.058,407.411,526.121,413.646z"/>
			<path style="fill:#161111;" d="M497.826,426.322c4.071-0.369,8.099-1.086,12.165-1.462c3.435-0.318,6.883-0.495,10.304-0.953
				c2.424-0.325,4.935-0.767,7.255-1.643c1.467-0.554,0.526-4.04,0.313-5.013c-0.505-2.316-0.485-4.852-0.388-7.21
				c-3.906-0.065-7.818-0.134-11.714-0.284c-0.724-0.028-1.469-0.053-2.152,0.188c-0.908,0.319-1.589,1.06-2.293,1.715
				c-3.064,2.852-7.074,4.403-10.842,6.226c-3.768,1.823-7.565,4.169-9.473,7.895c-0.151,0.294-0.284,0.637-0.256,0.953
				C493.109,426.674,495.47,426.536,497.826,426.322z"/>
			<path style="fill:#D98C73;" d="M574.869,415.15c0.042,0.353,0.092,0.724,0.327,0.989c0.263,0.297,0.708,0.405,1.13,0.497
				c3.647,0.798,7.369,1.408,11.143,1.825c0.681-9.728,3.037-19.752,0.949-28.997c-0.308-1.365-0.728-2.733-1.628-3.806
				c-1.485-1.772-4.184-2.514-6.809-2.159c-2.082,0.281-6.393,1.783-7.347,3.807c-1.044,2.215,0.306,6.955,0.47,9.244
				C573.549,402.776,574.137,408.978,574.869,415.15z"/>
			<g id="XMLID_97_">
				<g id="XMLID_562_">
					<g id="XMLID_572_">
						<path style="fill:#E8654B;" d="M594.556,254.364c-1.03-6.481-6.386-28.834-14.512-30.051
							c-1.351-0.202-1.905,0.453-3.065,0.489c-0.409,0.013-0.793-0.099-1.199-0.112c-1.755-0.057-3.335,1.677-5.115,1.866
							c-2.896,0.308-3.946,0.023-6.093,2.387c-2.093,2.304-3.749,4.941-5.047,7.79c-0.131,0.288-0.247,0.585-0.371,0.877
							c-0.741,8.32-0.761,16.708-0.408,25.05c0.48,11.318,1.641,22.594,2.907,33.847c1.271,11.299,2.254,22.629,3.886,33.885
							c3.311,22.839,4.329,46.138,3.419,69.326c5.054,0.205,15.044-0.182,19.885-0.527c0.723-0.052,6.108-0.763,6.169-1.439
							c1.648-18.258,1.585-32.933,1.966-52.106c0.287-14.414-1.151-32.133-0.759-46.266
							C596.641,284.169,596.959,269.482,594.556,254.364z"/>
					</g>
				</g>
				<g id="XMLID_606_">
					<path id="XMLID_622_" style="fill:#D98C73;" d="M573.528,137.737c-0.048,0.337-0.1,0.674-0.155,1.01
						c-0.847,5.208,1.163,10.646,0.125,16.034c-0.735,3.817-3.987,11.408-8.674,11.905c-1.194,0.126-2.389-1.456-3.047-2.262
						c-2.175-2.669-3.922-5.813-4.296-9.235c-0.181-1.656-0.037-3.328,0.107-4.988c0.207-2.387,0.414-4.774,0.622-7.162
						c0.097-1.121,0.195-2.244,0.429-3.345c0.423-1.986,1.303-3.89,2.652-5.408c2.786-3.134,6.853-3.385,10.791-3.459
						c0.445-0.008,0.918,0.002,1.293,0.243c0.721,0.464,0.725,1.498,0.646,2.352C573.888,134.871,573.733,136.309,573.528,137.737z"
						/>
					<path style="fill:#1D2038;" d="M564.342,142.992c2.485,0.749,8.978,1.759,8.978,1.759c-0.057-1.276-0.252-3.626-0.139-4.9
						c0.015-0.17,0.167-1.259,0.318-2.223c0.129-0.824,0.257-1.556,0.299-1.544c-0.57-0.151-1.177-0.421-1.621-0.816
						c-0.274-0.244-0.464-0.569-0.743-0.824c-1.772-1.622-4.381-1.994-6.59-1.117c-1.293,0.514-2.397,1.416-3.246,2.509
						c-0.51,0.657-0.931,1.38-1.273,2.137c-0.36,0.795-0.843,1.827-0.897,2.707c-0.001,0.009-0.031,0.237-0.081,0.616
						C560.992,141.911,562.656,142.484,564.342,142.992z"/>
					<g id="XMLID_607_">
						<path id="XMLID_620_" style="fill:#D98C73;" d="M558.314,117.382c1.978-1.056,5.88,1.469,8.117,1.749
							c2.201,0.489,5.633,1.045,7.183,2.665c3.282,3.43,2.674,9.391,0.607,13.571c-0.346,0.7-1.065,2.483-1.48,3.144
							c-3.316,5.274-9.458,5.742-12.541,4.997c-3.683-0.89-5.682-3.963-6.306-8.266c-0.112-0.773-0.14-3.293-0.152-4.074
							C553.669,126.377,556.232,118.494,558.314,117.382z"/>
						<path id="XMLID_611_" style="fill:#161111;" d="M557.385,113.025c2.373-1.606,5.487-2.341,8.396-2.779
							c7.423-1.117,12.867,4.154,12.852,11.721c-0.005,2.589-1.281,8.448-4.067,9.64c-3.389,1.45-3.016-2.667-2.557-5.228
							c0.171-0.953,0.473-1.889,0.5-2.857c0.027-0.968-0.283-2.018-1.081-2.566c-0.558-0.384-1.263-0.466-1.938-0.529
							c-2.315-0.215-15.4,1.056-15.188-3.582c0.015-0.338,0.169-0.652,0.339-0.945C555.331,114.713,556.278,113.774,557.385,113.025
							z"/>
						<path id="XMLID_610_" style="fill:#161111;" d="M553.496,128.863c0.032,0.168,0.07,0.331,0.114,0.489
							c0.102-0.033,0.312-0.11,0.367-0.211c1.472-2.704,0.632-6.721,2.895-8.96c0.771-0.763,1.956-1.321,2.069-2.4
							c0.049-0.469-0.132-0.93-0.328-1.36c-0.105-0.229-0.221-0.465-0.423-0.616c-0.271-0.203-0.64-0.211-0.977-0.172
							c-4.434,0.522-4.141,5.611-3.942,8.86C553.355,125.85,553.238,127.507,553.496,128.863z"/>
						<path id="XMLID_1_" style="fill:#D98C73;" d="M572.569,133.703c0.909,1.311,2.636,1.76,3.821,0.523
							c0.54-0.564,0.792-1.346,0.925-2.116c0.119-0.686,0.157-1.401-0.041-2.068c-0.271-0.91-1.018-1.521-1.896-1.818
							C572.408,127.219,571.222,131.762,572.569,133.703z"/>
						<path id="XMLID_608_" style="fill:#D98C73;" d="M551.482,128.809c0.011,0.572,0.159,1.141,0.437,1.641
							c1.086,1.954,3.71,1.292,4.417-0.618c0.295-0.798,0.263-1.719,0.004-2.522c-0.427-1.325-1.549-2.408-2.971-1.671
							c-0.829,0.43-1.472,1.205-1.742,2.099C551.523,128.085,551.475,128.448,551.482,128.809z"/>
					</g>
				</g>
				<g id="XMLID_169_">
					<g id="XMLID_171_">
						<path style="fill:#E8654B;" d="M576.297,218.001c-3.544-5.696-9.977-9.854-16.559-11.412
							c-7.301-1.729-16.202-0.737-19.414,7.679c-1.645,4.31-1.262,8.693-3.223,12.861c-5.537,11.772-6.248,23.46-7.896,36.423
							c-1.947,15.313-3.97,30.616-6.069,45.908c-3.989,29.058-8.261,58.077-12.797,87.055c3.015,0.726,6.067,1.296,9.152,1.645
							c5.362,0.607,10.747,0.455,16.093-0.169c5.225-26.349,10.804-52.627,16.755-78.822c3.128-13.771,5.426-20.426,8.754-34.15
							c2.674-11.027,4.579-31.803,10.858-41.336c2.031-3.092,4.497-5.989,5.826-9.395
							C580.142,228.227,579.165,222.61,576.297,218.001z"/>
					</g>
				</g>
				<path style="fill:#5DA5C7;" d="M571.864,155.592c-2.652,4.157-10.693,4.157-13.389-2.344c-0.331-0.798-0.614-1.619-0.88-2.439
					c-4.853-0.461-12.266-0.489-16.433,2.321c-1.346,0.908-2.283,2.294-3.166,3.657c-3.217,4.964-6.183,10.09-8.883,15.352
					c-0.309,0.601-0.622,1.239-0.589,1.914c0.041,0.83,0.59,1.533,1.069,2.212c4.853,6.877,4.122,15.437,4.041,23.348
					c-0.122,12.006-3.208,27.746-3.331,39.752c10.129,3.875,56.226,6.902,62.773,3.894c-3.467-15.629-2.311-41.627,0.327-59.17
					c1.118-7.433,0.335-15.061-0.41-22.553c-0.174-1.754,0.49-6.385-0.393-7.749c-1.176-1.817-6.522-1.715-8.438-2.031
					c-1.747-0.289-3.496-0.567-5.248-0.827c-1.663-0.246-3.387-0.301-4.997-0.721c-0.207,0.905-0.43,1.807-0.671,2.704
					C572.969,153.959,572.385,154.777,571.864,155.592z"/>
				<g id="XMLID_73_">
					<path id="XMLID_121_" style="fill:#5DA5C7;" d="M531.38,163.475c-0.502,0.839-0.988,1.688-1.466,2.536
						c-7.143,12.667-10.759,25.758-6.322,39.878c0.95,3.023,2.242,6.229,4.967,7.848c2.164,1.286,4.941,1.304,7.279,0.373
						c2.338-0.931,4.259-2.727,5.682-4.803c2.958-4.316,2.816-9.432,2.731-14.421c-0.112-6.654-0.424-12.869,0.983-19.463
						c0.885-4.149,2.056-8.177,2.105-12.447c0.044-3.795,1.473-7.246,2.67-10.929c-4.254-1.163-8.888,0.546-12.25,3.4
						C535.139,157.671,533.154,160.512,531.38,163.475z"/>
				</g>
				<path style="fill:#FFFFFF;" d="M565.504,134.758c-0.171,2.068-1.837,3.669-3.836,3.611c-1.999-0.057-3.57-1.752-3.622-3.826
					L565.504,134.758z"/>
				<path style="fill:#5DA5C7;" d="M584.148,151.498c-1.992-0.079-3.993-0.074-5.981-0.067c-0.336,0.001-0.684,0.005-0.987,0.151
					c-0.417,0.201-0.666,0.631-0.877,1.042c-2.845,5.541-3.36,13.767-0.892,19.546c0.746,1.746,1.756,3.365,2.619,5.056
					c0.851,1.668,2.145,3.318,2.852,5.017c0.821,1.975,0.628,4.754,0.678,6.862c0.115,4.834-0.327,9.682-1.323,14.414
					c-0.661,3.143-1.493,6.697,0.322,9.347c1.798,2.626,5.662,3.158,8.608,1.954c2.946-1.203,5.13-3.736,6.966-6.335
					c4.768-6.748,8.484-14.413,10.313-22.494c1.668-7.364,1.879-16.736-1.216-23.79c-2.072-4.723-6.77-7.882-11.717-9.34
					C590.474,151.967,587.323,151.624,584.148,151.498z"/>
				<path style="fill:#D98C73;" d="M537.87,204.983c0.707-0.063,1.432,0.002,2.174,0.233c6.344,1.978,12.686,3.276,19.227,4.659
					c4.379,0.926,8.711,2.077,12.972,3.446c3.437,1.105,7.195,3.364,10.79,3.347c3.807-0.018,6.483-0.411,9.061-3.38
					c1.247-1.437,2.42-2.939,3.512-4.497c0.643-0.918,1.278-1.916,1.334-3.035c0.083-1.66-1.117-3.095-2.365-4.193
					c-2.655-2.335-4.013-5.027-7.31-6.606c-3.348-1.603-7.108-2.291-10.784-2.581c-7.158-0.566-14.088-2.15-21.276-1.994
					c-8.121,0.177-16.159,1.553-24.13,3.017c-2.919,0.536-5.94,1.127-8.356,2.852c-3.706,2.646-5.254,7.936-3.56,12.162
					c0.489,1.22,1.388,2.459,2.693,2.612c1.306,0.153,2.592-1.564,1.684-2.513C529.635,214.051,531.769,205.53,537.87,204.983z"/>
				<path style="fill:#D98C73;" d="M555.441,209.752c-2.455,1.307-4.94,2.553-7.452,3.73c-6.203,2.906-12.558,2.641-19.005,0.996
					c-6.648-1.697-5.815-7.393-0.806-11.524c7.322-6.038,16.879-8.471,26.095-10.738c9.864-2.426,22.633-7.505,32.416-2.199
					c1.525,0.827,2.761,2.136,3.598,3.648c0.411,0.743,0.729,1.539,0.938,2.363c0.109,0.428,0.193,0.865,0.237,1.305
					c0.009,0.092-0.018,1.029-0.058,0.982c-0.742-0.859-1.597-1.999-2.643-2.451c-1.14-0.493-2.525-0.516-3.745-0.565
					c-5.035-0.202-8.891,1.779-12.979,4.499C566.679,203.362,561.14,206.719,555.441,209.752z"/>
			</g>
			<path style="fill:#161111;" d="M572.855,424.891c0.091,0.027,0.192,0.043,0.292,0.061c0.781,0.01,1.562,0.034,2.343,0.065
				c0.2,0.002,0.397,0.01,0.589,0.026c0.932,0.043,1.865,0.095,2.797,0.162c7.266,0.521,14.696,1.702,21.864,1.84
				c2.505,0.049,5.14-0.017,7.411-0.819c5.865-2.073-1.283-4.793-3.608-5.995c-2.443-1.263-4.56-2.452-7.168-3.509
				c-3.307-1.34-6.486-2.994-9.481-4.933c-4.183,0.927-8.487,1.303-12.768,1.115C572.931,412.808,569.665,423.961,572.855,424.891z"
				/>
			<path style="fill:none;stroke:#131834;stroke-width:0.5;stroke-miterlimit:10;" d="M540.727,192.273
				c0.546-7.379,2.072-14.684,4.526-21.664"/>
			<path style="fill:none;stroke:#131834;stroke-width:0.5;stroke-miterlimit:10;" d="M583.562,188.318
				c1.072-5.883,2.144-11.765,3.216-17.648"/>
			<path style="fill:none;stroke:#131834;stroke-width:0.5;stroke-miterlimit:10;" d="M587.882,198.174
				c-2.477-0.484-4.955-0.967-7.432-1.451c-0.484-0.095-0.977-0.19-1.468-0.14c-0.674,0.068-1.288,0.403-1.881,0.73
				c-7.026,3.88-14.051,7.759-21.077,11.638"/>
			<path style="fill:none;stroke:#131834;stroke-width:0.5;stroke-miterlimit:10;" d="M561.743,190.13
				c-7.476,1.84-14.952,3.68-22.428,5.52c-3.616,0.89-7.327,1.823-10.364,3.978c-3.037,2.155-5.285,5.846-4.64,9.514"/>
			<path style="fill:none;stroke:#131834;stroke-width:0.5;stroke-miterlimit:10;" d="M560.972,289.616
				c-0.877-11.47-1.753-22.939-2.63-34.409"/>
			<path style="fill:#161111;" d="M565.979,110.996c0.321,0.97,0.926,1.74,1.941,2.089c2.381,0.819,7.259-1.846,8.834-3.398
				c2.106-2.076,2.949-5.609,1.323-8.079c-1.313-1.994-3.998-2.864-6.315-2.289s-4.203,2.433-5.104,4.643
				C565.955,105.687,565.265,108.838,565.979,110.996z"/>
		</g>
		<g>
			<path style="fill:none;stroke:#000000;stroke-miterlimit:10;" d="M281.231,424.932l16.208-116.212
				c0.03-0.382,0.585-0.402,0.643-0.023l17.669,116.235"/>
			<polyline style="fill:none;stroke:#000000;stroke-miterlimit:10;" points="194.228,424.052 212.584,348.233 240.517,424.052 			
				"/>
			<g>
				<g>
					<path style="fill:#C98B77;" d="M263.437,297.069c0.052-4.955-0.091-9.463,1.192-14.396c0.889-3.419,2.575-6.798,5.48-8.807
						c3.374-2.333,8.179-2.366,11.585-0.081c3.501,2.349,5.248,6.686,5.493,10.895c0.355,6.114-1.547,12.792-3.277,18.599
						c-1.887,6.332-4.076,12.572-6.557,18.696c-0.024,0.059-13.685-1.672-14.88-1.88
						C263.852,312.743,263.358,304.533,263.437,297.069z"/>
					<path style="fill:#D98C73;" d="M276.32,367.341c3.929-1.106,5.895-1.456,9.692-2.957c0.006,17.285,2.434,46.429,2.355,51.404
						c-4.878,0.551-8.694,2.352-13.628,2.405c-3.869-5.992-5.447-22.95-7.633-29.505c-0.505-1.515-2.71-9.083-5.172-17.696
						C266.762,369.909,271.557,368.681,276.32,367.341z"/>
					<path style="fill:#944B30;" d="M206.357,357.096c-6.933-1.331-13.77-3.165-20.435-5.493
						c-15.509-5.416-28.004-21.702-32.946-36.92c-5.192-15.987-7.082-36.24-4.319-52.776c1.78-10.652,7.876-21.502,18.112-24.948
						c7.365-2.479,15.468-0.721,22.803,1.844c9.888,3.457,15.494,8.312,19.812,17.724c4.628,10.088,8.029,20.766,13.818,30.295
						c6.242,10.274,15.183,18.873,25.632,24.805c9.906,5.624,20.967,7.274,24.438,19.936c1.393,5.082,0.839,10.657-1.452,15.402
						c-4.551,9.427-13.421,11.004-23.055,11.997C234.639,360.42,220.302,359.774,206.357,357.096z"/>
					<path d="M267.296,332.664c5.623,1.296,11.393,1.89,17.094,2.731c3.003,0.443,9.143,2.151,11.976,0.052
						c3.582-2.654-2.286-4.204-4.941-5.688c-4.572-2.556-9.21-4.991-13.82-7.478c-4.258-2.297-9.725-7.194-14.068-2.456
						c-2.793,3.047-3.113,7.908-3.431,11.815C262.543,331.724,264.902,332.113,267.296,332.664z"/>
					<path style="fill:#5DA5C7;" d="M176.347,312.396c2.6-8.209,14.367-10.091,21.633-9.508c15.116,1.212,30.278,1.582,45.311,2.812
						c12.246,1.001,25.575,3.65,33.996,13.414c6.882,7.979,7.992,18.96,9.94,28.96c2.268,11.642,3.934,23.4,4.987,35.214
						c0.265,2.972,0.262,6.489-2.125,8.279c-1.541,1.155-3.618,1.194-5.543,1.186c-3.954-0.017-7.909-0.034-11.863-0.05
						c-3.435-0.015-7.312-0.219-9.585-2.795c-1.57-1.779-1.966-4.274-2.298-6.623c-0.436-3.085-7.208-41.194-6.809-41.249
						c-12.413,1.969-25.061,2.457-37.589,1.451c-8.854-0.711-17.862-2.24-25.586-6.625
						C183.349,332.622,173.339,321.893,176.347,312.396z"/>
					<path style="fill:#E3AE3D;" d="M172.742,309.184c0.522,1.521,0.823,2.555,1.269,3.283c2.274-0.031,4.554,0.005,6.828,0.039
						c5.959,0.091,11.972,0.176,17.835-1.056c5.098-1.071,10.169-2.624,15.082-4.349c7.584-2.664,14.696-4.542,14.138-13.831
						c-0.701-11.971-2.148-27.054,1.231-38.729c1.364-4.712,2.104-8.226,4.146-12.686c0.561-1.226,1.124-2.489,1.204-3.835
						c0.057-0.962-0.136-1.92-0.367-2.855c-3.773-15.32-16.582-15.506-30.172-16.708c-2.104-0.186-4.237-0.371-6.32-0.015
						c-2.568,0.44-4.925,1.68-7.159,3.02c-11.911,7.145-13.358,18.668-16.943,31.07c-1.791,6.195-4.597,12.059-6.394,18.252
						C163.285,284.008,168.454,296.69,172.742,309.184z"/>
					<path d="M291.71,412.983c1.462,0.817,3.649,1.306,5.216,1.778c4.05,1.22,8.247,1.908,12.242,3.318
						c2.095,0.739,4.096,3.359,1.816,5.215c-0.993,0.809-2.334,1.013-3.606,1.16c-10.135,1.171-20.38,0.601-30.566,0.03
						c-0.554-0.031-1.162-0.085-1.556-0.476c-0.224-0.222-0.346-0.525-0.459-0.819c-1.239-3.245-2.091-6.871-2.872-10.187
						c1.366-0.333,2.81,0.236,4.182,0.34c1.78,0.135,3.726,0.276,5.35-0.619c2.192-1.208,4.208-2.738,5.961-4.525
						c0.164-0.166,0.331-0.34,0.547-0.427c0.709-0.287,1.405,0.48,1.645,1.207c0.467,1.416,0.492,3.002,1.832,3.846
						C291.527,412.878,291.617,412.931,291.71,412.983z"/>
					<path style="fill:#5DA5C7;" d="M263.007,293.784c-0.121-1.683,0.009-3.244,1.58-3.836c2.169-0.816,2.902,0.338,4.288-1.91
						c2.671-4.33,4.567-9.741,6.375-14.488c2.178-5.72,6.285-13.185,6.069-19.332c-0.011-0.32-0.038-0.658-0.226-0.916
						c-0.218-0.301-0.601-0.424-0.961-0.519c-3.202-0.838-6.567-0.752-9.87-0.539c-21.778,1.4-33.937,25.014-44.239,41.185
						c-1.553,2.439-10.603,14.176-12.98,13.988c8.324,0.659,14.733,4.875,22.432,7.2c4.725,1.427,9.923,5.642,14.344,6.246
						c1.429,0.196,7.26-10.521,8.11-11.925c2.23-3.679,5.377-7.873,5.308-12.334C263.224,295.727,263.075,294.736,263.007,293.784z"
						/>
					<path style="fill:#5DA5C7;" d="M288.968,295.835c-0.456,3.38-0.945,6.751-1.451,10.109c-0.166,1.099-0.369,2.269-1.126,3.083
						c-1.123,1.209-3.011,1.195-4.655,1.05c-5.979-0.527-11.908-1.617-17.684-3.249c-1.752-0.495-3.593-1.107-4.752-2.511
						c-1.022-1.238-1.347-2.897-1.562-4.488c-1.554-11.496,2.12-22.728,1.963-34.278c-0.084-6.169,2.208-9.892,5.343-14.925
						c3.007-4.829,7.239-6.469,12.664-4.629c9.141,3.101,14.369,12.785,13.94,21.99
						C291.214,277.272,290.215,286.587,288.968,295.835z"/>
					<g id="XMLID_14_">
						<g id="XMLID_15_">
							<path id="XMLID_16_" style="fill:#C98B77;" d="M203.893,206.538c-0.089,1.114,2.242,3.659,2.955,4.461
								c1.13,1.273,2.447,2.257,4.036,2.883c4.139,1.633,8.478,1.783,11.722-1.629c1.54-1.62,2.587-3.643,3.464-5.699
								c1.336-3.132,3.2-11.77,2.354-15.069c-0.768-2.994-3.978-0.385-6.901-1.39c-2.543-0.874-4.478-1.657-7.198-1.184
								c-2.418,0.42-4.75,1.622-6.269,3.584c-0.41,0.529-0.78,1.065-1.12,1.601c-0.804,1.708-1.545,3.448-2.08,5.261
								c-0.446,1.512-0.597,3.045-0.839,4.576C204,204.804,203.962,205.673,203.893,206.538z"/>
						</g>
					</g>
					<g id="XMLID_7_">
						<g id="XMLID_8_">
							<path style="fill:#C98B77;" d="M202.17,226.446c2.405,1.685,5.378,2.8,8.303,3.036c0.563,0.046,7.707-0.752,6.683-2.103
								c-2.681-3.538-1.217-6.69,0.465-10.536c0.258-0.59,2.509-4.222,2.276-4.631c-0.066-0.116-0.147-0.225-0.251-0.324
								c-0.539-0.516-1.374-0.502-2.12-0.51c-2.789-0.032-5.399-0.911-7.665-2.527c-1.078-0.769-2.049-1.675-2.975-2.619
								c-0.53-0.54-1.503-2.422-2.312-2.49c-0.077-0.006-0.136,0.034-0.199,0.061c-0.951,3.815-1.03,7.381-3.327,10.799
								c-0.869,1.293-1.897,2.442-3.116,3.287c-0.625,0.599-1.388,1.037-2.423,1.226
								C197.145,222.017,199.419,224.518,202.17,226.446z"/>
						</g>
					</g>
					<path style="fill:#131834;" d="M218.47,196.732c1.238-0.555,2.499-0.992,3.858-0.942c1.124,0.041,1.907,0.578,3.097,0.181
						c0.025-0.393-0.231-2.354-0.775-2.464c1.577,0.32,3.087,0.97,4.403,1.897c0.291,0.205,0.588,0.43,0.939,0.489
						c0.358,0.06,0.723-0.062,1.042-0.236c3.832-2.092-0.121-8.104-2.167-10.126c-2.296-2.269-5.49-3.603-8.717-3.641
						c-0.014-0.623-0.028-1.246-0.042-1.87c-1.737,0.3-3.436,0.82-5.043,1.543c0.134-0.805,0.049-1.645-0.244-2.406
						c-8.007,4.413-15.831,11.803-12.779,21.894c0.548,1.812,1.303,4.609,3.548,4.657c2.511,0.054,4.331-2.733,4.602-4.904
						c0.073-0.586,0.145-1.302,0.685-1.543c0.549-0.246,1.141,0.199,1.729,0.33C214.534,200.024,216.813,197.475,218.47,196.732z"/>
					<path style="fill:#E3AE3D;" d="M250.987,257.141c1.274,1.528,2.318,3.102,5.983,2.86c4.656-0.307,9.186-2.672,11.845-6.552
						c0.739-1.078,1.347-2.279,1.523-3.574c1.058-7.797-7.718-12.85-13.32-16.004c-6.42-3.616-13.364-6.157-20.363-8.397
						c-6.208-1.987-12.694-5.438-19.379-4.904c-0.174,0.014-0.355,0.046-0.529,0.092c0.072,0.865,0.116,1.732,0.123,2.599
						c3.055,4.805,4.952,10.502,6.186,16.042c0.798,3.581,2.577,7.714,2.215,11.408c7.393,1.016,14.742,2.347,22.022,3.99
						C249.188,255.127,250.139,256.124,250.987,257.141z"/>
					<path style="fill:#C98B77;" d="M262.132,240.637c-2.832,0.319-5.206,2.44-6.581,4.937c-1.375,2.497-1.918,5.352-2.442,8.154
						c-1.498,8.006-1.987,17.289-4.671,24.964c-1.667,4.768-8.155,11.345-4.946,16.784c0.941,1.595,2.929,2.496,4.748,2.154
						c3.221-0.606,4.722-4.216,6.092-7.193c1.766-3.839,4.386-6.793,6.726-10.164c2.926-4.216,5.045-9.388,7.164-14.045
						c2.716-5.971,5.123-12.777,2.905-18.95C269.769,243.498,266.14,240.197,262.132,240.637z"/>
					<g>
						<defs>
							<path id="SVGID_1_" d="M226.24,234.178c0.025-0.125,0.035-0.252,0.052-0.379c-0.828-2.975-5.088-2.925-7.482-4.177
								c-0.484-0.254-0.896-0.569-1.253-0.926c-0.047-0.047-0.096-0.094-0.14-0.144c-0.752-0.815-1.21-1.85-1.389-3.023
								c-0.729-4.79,1.745-9.109,3.87-13.317c-0.066-0.116-0.148-0.225-0.251-0.324c-0.539-0.516-1.374-0.502-2.12-0.51
								c-2.789-0.032-5.399-0.911-7.665-2.527c-1.078-0.769-2.049-1.675-2.975-2.619c-0.53-0.54-1.503-2.423-2.312-2.49
								c-0.077-0.006-0.136,0.034-0.199,0.062c-0.951,3.814-1.03,7.381-3.327,10.798c-0.869,1.293-1.897,2.442-3.116,3.287
								c-0.639,0.613-1.419,1.061-2.489,1.243c-0.271,0.046-0.548,0.068-0.829,0.075c-0.113,0.016-0.219,0.046-0.335,0.057
								c-0.135,0.013-0.245-0.02-0.342-0.069c-1.727-0.075-3.51-0.483-4.838,0.531c-0.626,0.478-1.016,1.2-1.321,1.926
								c-2.251,5.355-0.669,12.331,2.176,17.149c2.168,3.671,5.974,7.067,10.116,8.22c3.943,1.098,8.056,0.171,11.807-1.193
								c1.645-0.598,3.207-1.192,4.709-1.882c4.518-2.075,8.415-4.386,9.598-9.509C226.203,234.352,226.223,234.265,226.24,234.178z
								"/>
						</defs>
						<clipPath id="SVGID_00000063616733792310116480000008125132170036450494_">
							<use xlink:href="#SVGID_1_"  style="overflow:visible;"/>
						</clipPath>
						<path style="clip-path:url(#SVGID_00000063616733792310116480000008125132170036450494_);fill:#131834;" d="M211.257,213.446
							c0.107,0.058,0.234,0.111,0.369,0.161c2.35,0.965,4.936,1.559,7.412,1.197c0.62,0.265,0.415,0.772,0.103,1.688
							c-0.438,1.284-0.832,2.582-1.181,3.893c-2.286-2.335-4.571-4.671-6.856-7.006
							C211.154,213.401,211.205,213.424,211.257,213.446z"/>
					</g>
					<path style="fill:#E3AE3D;" d="M175.453,229.716c-4.681,5.351-6.601,12.565-8.192,19.322c-2.056,8.733-4.113,17.467-6.169,26.2
						c-0.483,2.05-0.968,4.117-1.027,6.223c-0.095,3.379,0.874,7.678,1.667,10.931c1.018,4.177,3.517,3.919,7.237,3.55
						c5.883-0.584,13.887-2.364,17.859-7.162c1.888-2.281,2.495-5.329,3.039-8.239c0.748-4.002,1.496-8.003,2.244-12.005
						c3.056-16.35,6.111-33.216,2.653-49.486C186.524,220.274,180.265,224.217,175.453,229.716z"/>
					<path style="fill:none;stroke:#131834;stroke-width:0.5;stroke-miterlimit:10;" d="M194.927,245.95
						c-6.801,1.771-6.191,10.474-6.807,15.842c-0.91,7.929-2.422,15.789-4.521,23.489"/>
					<path style="fill:none;stroke:#131834;stroke-width:0.5;stroke-miterlimit:10;" d="M267.169,265.091
						c-2.602,11.218-8.559,28.258-8.671,39.773"/>
					<path style="fill:#FFFFFF;" d="M218.597,207.334c0.407,1.056,1.302,1.828,2.279,1.966c0.977,0.138,2.001-0.363,2.609-1.275"/>
					<path style="fill:none;stroke:#000000;stroke-width:3;stroke-miterlimit:10;" d="M150.331,302.803
						c18.834-4.276,40.08-7.776,57.03,0.199c11.039,5.194,18.488,14.865,20.578,25.158c2.09,10.293-0.027,19.305-6.379,28.348"/>
					<g>
						<defs>
							<path id="SVGID_00000039823032495306403280000003718612154950995074_" d="M206.357,357.096
								c-6.933-1.331-13.77-3.165-20.435-5.493c-15.509-5.416-28.004-21.702-32.946-36.92c-5.192-15.987-7.082-36.24-4.319-52.776
								c1.78-10.652,7.876-21.502,18.112-24.948c7.365-2.479,15.468-0.721,22.803,1.844c9.888,3.457,15.494,8.312,19.812,17.724
								c4.628,10.088,8.029,20.766,13.818,30.295c8.141,13.4,20.877,23.949,35.557,29.455c9.648,3.618,28.487,6.198,24.745,20.419
								c-4.071,15.475-20.384,20.787-34.739,22.267C234.639,360.42,220.302,359.774,206.357,357.096z"/>
						</defs>
						<clipPath id="SVGID_00000088127370762121804200000014177558793992619957_">
							<use xlink:href="#SVGID_00000039823032495306403280000003718612154950995074_"  style="overflow:visible;"/>
						</clipPath>
						<path style="clip-path:url(#SVGID_00000088127370762121804200000014177558793992619957_);fill:#E8654B;" d="M256.295,361.921
							c-2.951-0.742-5.898-1.499-8.825-2.331c-6.405-1.821-12.612-4.084-18.602-7c-11.458-5.576-22.649-11.986-32.384-20.271
							c-9.035-7.689-17.179-16.527-23.617-26.513c-3.125-4.848-5.645-9.956-8.12-15.153c-2.336-4.906-4.707-9.796-6.836-14.796
							c-3.729-8.759-7.443-18.598-7.082-28.326c-0.031-0.098-0.061-0.189-0.092-0.296c-6.648,20.223-8.544,42.341-3.007,62.896
							c5.538,20.555,18.961,39.338,37.825,49.203c13.189,6.897,28.28,9.236,43.135,10.176c7.41,0.469,26.509,2.711,29.971-6.43
							c-0.508-0.226-1.03-0.492-1.562-0.76C256.833,362.185,256.565,362.051,256.295,361.921z"/>
					</g>
					<path style="fill:none;stroke:#131834;stroke-width:0.5;stroke-miterlimit:10;" d="M254.413,344.468
						c-0.515-3.903-0.63-8.739-1.145-12.642"/>
					<path style="fill:none;stroke:#131834;stroke-width:0.5;stroke-miterlimit:10;" d="M258.765,308.639
						c-12.124-1.844-19.926-0.229-35.536-0.229"/>
					<path style="fill:#C98B77;" d="M206.532,200.388c0,1.984,1.608,3.592,3.592,3.592c1.984,0,3.592-1.608,3.592-3.592
						c0-1.984-1.608-3.592-3.592-3.592C208.14,196.796,206.532,198.404,206.532,200.388z"/>
				</g>
				<path style="fill:#C98B77;" d="M185.221,278.065c3.647,0.797,7.226,1.963,10.806,3.046c5.685,1.72,11.444,2.711,17.219,4.248
					c1.641,0.437,3.306,0.863,5.005,0.879c2.919,0.028,5.738-1.153,8.657-1.217c3.903-0.086,7.716,2.092,9.837,5.334
					c3.571,5.458-2.349,3.997-6.074,3.942c-2.905-0.042-5.811-0.085-8.716-0.127c-11.422-0.167-22.222,0.412-33.681,1.375
					c-6.225,0.523-17.077,1.982-22.614-1.711c-2.69-1.794-7.125-10.529-4.656-13.14c0.463-0.489,1.102-0.765,1.728-1.014
					c5.603-2.23,11.669-3.043,17.688-2.41C182.037,277.442,183.635,277.719,185.221,278.065z"/>
				<path style="fill:#C98B77;" d="M269.17,287.311c-0.069,0-0.139,0-0.208,0"/>
			</g>
			<g>
				<path style="fill:none;stroke:#000000;stroke-miterlimit:10;" d="M133.907,424.932l16.99-116.212
					c0.032-0.382,0.613-0.402,0.674-0.023l18.522,116.235"/>
				<rect x="140.461" y="305.054" style="fill:#B2B1AA;" width="168.309" height="5.159"/>
			</g>
			<path style="fill:none;stroke:#222221;stroke-width:0.5;stroke-miterlimit:10;" d="M211.813,199.87
				c-0.214-1.295-1.987-2.018-3.046-1.243"/>
			<g>
				<path style="fill:#FFFFFF;" d="M267.571,305.286h-75.467c-0.842,0-1.525-0.683-1.525-1.525v-0.519
					c0-0.842,0.683-1.525,1.525-1.525h75.467c0.842,0,1.525,0.683,1.525,1.525v0.519
					C269.095,304.603,268.413,305.286,267.571,305.286z"/>
				<path style="fill:#FFFFFF;" d="M269.341,305.286h-67.096l5.838-38.555c0.203-1.338,1.339-2.337,2.659-2.337h61.777
					c1.595,0,2.795,1.438,2.55,3.055L269.341,305.286z"/>
				<g>
					
						<line style="fill:none;stroke:#131834;stroke-width:0.5;stroke-miterlimit:10;" x1="244.551" y1="283.655" x2="247.462" y2="286.075"/>
					
						<line style="fill:none;stroke:#131834;stroke-width:0.5;stroke-miterlimit:10;" x1="240.727" y1="283.655" x2="243.637" y2="286.075"/>
					
						<line style="fill:none;stroke:#131834;stroke-width:0.5;stroke-miterlimit:10;" x1="236.902" y1="283.655" x2="239.812" y2="286.075"/>
				</g>
			</g>
			<path style="fill:none;stroke:#131834;stroke-width:0.5;stroke-miterlimit:10;" d="M229.207,253.466
				c-0.256-1.174,0.254-2.479,1.239-3.168"/>
			<path style="fill:none;stroke:#131834;stroke-width:0.5;stroke-miterlimit:10;" d="M249.775,250.943
				c-0.182,2.507,0.134,5.049,0.923,7.436"/>
		</g>
		<g>
			<path d="M118.269,306.083c-0.138-2.547-0.189-5.127,0.455-7.594c0.812-3.11,3.083-7.764,7.252-8.01
				c3.804-0.225,9.16,2.575,11.723,4.852c1.897,1.685,3.414,3.768,4.324,5.98c1.423,3.458,2.302,8.355,1.804,11.979
				c-0.618,4.497-3.916,8.576-8.511,10.526c-6.811,2.891-12.714-0.323-15.682-6.266c-1.052-2.107-0.857-3.85-0.862-6.029
				C118.767,309.731,118.367,307.893,118.269,306.083z"/>
			<path style="fill:#E3AE3D;" d="M117.519,389.885c-7.331-0.434-15.526-1.074-21.149,3.649c-1.417,1.19-2.604,2.718-3.112,4.497
				c-0.67,2.345-0.099,4.892,0.952,7.094c3.025,6.338,9.632,10.217,16.302,12.418c11.541,3.81,24.219,3.659,35.934,0.423
				c11.715-3.236,22.488-9.465,31.751-17.332c4.122-3.501,10.178-9.623,6.04-15.305c-1.598-2.194-4.381-3.404-7.093-3.284
				c-1.731,0.077-3.398,0.645-5.036,1.208c-7.277,2.5-13.722,4.38-21.311,5.395C139.778,390.121,128.617,390.541,117.519,389.885z"
				/>
			<path style="fill:#8A563D;" d="M151.937,343.326c-0.35-3.343-2.267-6.4-4.721-8.624c-2.934-2.659-5.931-3.592-9.858-2.951
				c-1.583,0.258-4.994,1.311-6.25-0.229c-0.456-0.56-0.469-1.348-0.46-2.07c0.018-1.36,0.035-2.719,0.053-4.079
				c3.925,1.117,7.699,0.426,10.009-3.163c1.366-2.123,1.774-4.723,1.856-7.247c0.271-8.3-2.04-19.39-11.666-20.841
				c-10.958-1.651-16.658,7.962-18.036,17.268c-0.836,5.642,1.133,11.289-0.29,16.739c-0.36,1.38-0.893,2.769-1.909,3.769
				c-0.829,0.816-1.915,1.311-2.992,1.751c-3.785,1.547-7.181,1.663-11.25,1.458c-2.107-0.106-4.071-0.42-5.919,0.952
				c-1.858,1.379-0.321,4.637,0.919,5.883c1.166,1.172,2.753,1.808,4.307,2.372c14.911,5.417,31.092,7.015,46.882,5.485
				c3.793-0.367,9.363-1.075,9.351-5.988C151.963,343.649,151.954,343.487,151.937,343.326z"/>
			<path style="fill:#5DA5C7;" d="M93.878,371.223c0.797,4.367,1.746,8.761,3.76,12.713c2.771,5.434,7.425,9.726,12.588,12.975
				c5.091,3.204,10.909,5.527,16.925,5.548c6.311,0.021,13.562-2.168,19.261-4.757c4.28-1.944,8.731-4.2,11.222-8.186
				c2.442-3.908,2.566-8.801,2.306-13.402c-0.403-7.108-1.042-14.241-2.592-21.203c-1.653-7.424-6.924-26.904-18.022-23.051
				c-3.813,1.324-6.098,5.159-9.351,7.548c-3.215,2.361-7.49,3.326-11.44,3.122c-3.853-0.199-8.381-0.539-11.556-2.954
				c-1.827-1.389-3.36-3.361-5.591-3.902c-0.94-0.228-1.93-0.173-2.879,0.015c-6.307,1.25-8.471,7.436-8.588,13.192
				c-0.067,3.28,1.297,5.868,1.773,9.049C92.36,362.371,93.071,366.805,93.878,371.223z"/>
			<path style="fill:none;stroke:#000000;stroke-width:0.5;stroke-miterlimit:10;" d="M142.285,349.663
				c0.358,3.5,1.375,6.986,1.448,10.479c0.154,7.357-2.023,14.693-1.188,22.004"/>
			<path style="fill:#5DA5C7;" d="M97.193,393.038c0.671-4.144,2.638-4.577,3.064-6.565c2.398-11.169,5.143-25.59,6.652-36.96
				c0.573-4.318,0.547-9.16-2.295-12.462c-2.162-2.513-5.686-3.632-8.981-3.275c-6.052,0.655-10.106,5.273-13.02,10.203
				c-3.54,5.988-5.289,13-5.496,19.924c-0.219,7.362,1.614,14.005,2.991,21.133c0.934,4.836,2.206,16.246,7.582,18.337
				C93.912,405.792,96.149,399.487,97.193,393.038z"/>
			<path style="fill:#8A563D;" d="M123.496,397.933c-2.054-3.372-5.683-5.623-9.13-7.351c-1.823-0.914-3.694-1.64-5.603-2.295
				c-2.092-0.717-3.958-2.076-6.147-2.518c-3.1-0.626-6.263,0.78-8.849,2.601c-1.041,0.733-2.045,1.555-2.76,2.608
				c-1.04,1.533-1.717,3.712-0.566,5.155c1.38,1.731,3.172,3.174,5.049,4.332c3.845,2.371,8.35,3.613,12.838,3.915
				C112.284,404.647,127.979,405.295,123.496,397.933z"/>
			<rect x="101.386" y="401.45" width="51.092" height="2.573"/>
			<path style="fill:none;stroke:#000000;stroke-width:0.5;stroke-miterlimit:10;" d="M100.909,350.985
				c-4.452,11.298-3.165,22.361-0.761,33.947"/>
			<path d="M154.518,401.395h-47.618l12.157-25.975c0.334-0.714,1.051-1.17,1.839-1.17h43.135c1.486,0,2.469,1.545,1.839,2.891
				L154.518,401.395z"/>
			<path style="fill:#E3AE3D;" d="M136.855,428.231c1.395-0.467,2.632-1.222,3.128-2.665c0.857-2.494-0.252-5.593-1.952-7.445
				c-2.003-2.182-4.887-3.342-7.759-4.066c-2.079-0.524-4.366-0.946-5.788-2.55c-1.334-1.504-1.552-3.653-2.15-5.572
				c-0.85-2.73-2.592-5.174-4.896-6.868c-2.909-2.139-6.484-3.003-9.584-4.792c-2.622-1.513-5.203-3.249-7.752-4.922
				c-5.379-3.529-10.738-7.043-17.483-5.758c-5.91,1.126-11.52,4.306-14.708,9.548c-2.146,3.528-2.95,7.969-1.655,11.89
				c0.866,2.625,2.591,4.877,4.449,6.924c8.145,8.973,19.389,14.895,31.245,17.406c6.883,1.458,13.979,1.8,20.985,1.217
				c3.512-0.292,7.004-0.816,10.451-1.547C134.428,428.809,135.696,428.619,136.855,428.231z"/>
			<path d="M112.459,426.101c0.934-0.922,1.824-1.848,2.641-2.787c0.277-0.319,0.566-0.648,0.953-0.818
				c0.335-0.147,0.711-0.159,1.076-0.169c8.28,0,15.867-3.091,23.702-5.5c1.106-0.34,2.422-0.646,3.329,0.073
				c0.545,0.432,0.792,1.14,0.905,1.827c0.395,2.402-0.571,4.884-2.136,6.749c-1.565,1.865-3.676,3.19-5.844,4.298
				c-4.844,2.476-10.718,2.362-14.987,5.988c-5.204,4.42-10.605,8.692-16.716,11.802c-2.496,1.27-6.06,2.102-7.67-0.189
				c-1.058-1.505-0.593-3.599,0.227-5.246C100.985,436.012,107.373,431.121,112.459,426.101z"/>
			<path d="M173.561,430.714c-1.377-1.603-3.221-2.844-5.007-4.021c-5.97-3.936-13.583-8.622-21.102-8.188
				c-4.456,0.257-10.646,3.281-11.568,7.998c-0.104,0.532-0.149,1.102,0.064,1.601c0.531,1.24,2.205,1.351,3.554,1.363
				c10.855,0.096,20.7,6.216,31.343,8.351c1.157,0.232,2.451,0.392,3.435-0.259c1.496-0.99,1.402-3.272,0.602-4.878
				C174.525,431.964,174.076,431.314,173.561,430.714z"/>
			<path style="fill:#E3AE3D;" d="M139.381,432.555c8.152-2.945,16.304-5.889,24.456-8.834c7.162-2.587,14.377-5.199,20.902-9.125
				c5.644-3.395,10.755-7.988,13.752-13.937c2.813-5.586,4.192-12.779,0.45-17.79c-3.421-4.582-10.231-4.766-15.336-3.842
				c-4.723,0.854-9.347,2.22-13.617,4.438c-4.577,2.378-6.556,5.784-9.713,9.762c-4.566,5.753-10.279,10.298-15.906,14.948
				c-4.778,3.948-9.357,8.447-15.23,10.736c-1.011,0.394-2.227,0.955-2.297,2.038c-0.035,0.538,0.245,1.04,0.515,1.506
				c0.633,1.089,4.861,11.401,5.834,11.284C134.787,433.548,137.87,433.101,139.381,432.555z"/>
			<path d="M129.779,291.01c3.059,0.693,6.044,2.156,7.997,4.611c0.337,0.424,0.65,0.895,0.73,1.43
				c0.059,0.39-0.01,0.784-0.117,1.167c-0.811,2.882-2.185,5.601-4.347,7.671c-3.13,2.998-7.032,4.444-11.339,4.464
				c-0.625,0.003-2.442-0.403-2.876,0c-0.371,0.345-0.134,2.444-0.192,2.93c-0.283,2.389-0.827,4.868-2.383,6.775
				c-0.29,0.355-0.618,0.69-1.025,0.902c-0.609,0.317-1.339,0.325-2.011,0.181c-8.236-1.766-7.213-12.907-5.871-19.073
				c2.05-9.417,11.979-12.829,20.736-11.203C129.315,290.91,129.548,290.957,129.779,291.01z"/>
			<path style="fill:none;stroke:#000000;stroke-width:0.5;stroke-miterlimit:10;" d="M176.046,387.87
				c-9.177,4.15-16.563,11.36-24.919,16.984c-7.803,5.252-16.443,9.111-25.034,12.942"/>
			<path style="fill:none;stroke:#000000;stroke-width:0.5;stroke-miterlimit:10;" d="M90.42,395.519
				c8.754,7.688,17.743,5.732,28.482,10.25c5.283,2.223,9.779,5.303,14.83,7.811"/>
			<path style="fill:#8A563D;" d="M124.76,313.484c-0.292,2.691-2.382,4.672-4.67,4.424c-2.287-0.248-3.905-2.63-3.613-5.321
				c0.291-2.691,2.382-4.671,4.669-4.424C123.434,308.411,125.052,310.793,124.76,313.484z"/>
			<path d="M110.475,280.031c-2.609,0.143-5.084,1.287-7.197,2.823c-3.321,2.415-5.888,5.85-7.263,9.719
				c-0.367,1.032-0.653,2.122-0.543,3.211c0.11,1.089,0.681,2.183,1.659,2.674c1.482,0.744,3.257-0.089,4.604-1.055
				c2.333-1.674,4.324-3.796,6.732-5.37c1.224-0.8,2.571-1.52,4.015-1.82c1.577-0.328,3.434-0.211,4.445,0.961
				c0.731,0.848,1.939,3.9,1.57,5.018c0.813-2.46,1.146-5.077,0.974-7.662C119.144,283.628,115.542,279.753,110.475,280.031z"/>
			<path style="fill:none;stroke:#222221;stroke-width:0.5;stroke-miterlimit:10;" d="M122.919,312.79
				c-0.028-0.906-0.737-1.687-1.575-2.031c-0.839-0.343-1.782-0.32-2.679-0.196"/>
			<path style="fill:none;stroke:#222221;stroke-width:0.5;stroke-miterlimit:10;" d="M133.716,315.172
				c0.741,2.039,3.337,3.168,5.334,2.319"/>
		</g>
		<g>
			<path style="fill:#E79D81;" d="M400.965,208.352c0.177-3.006,1.665-5.951,4.098-7.725c0.901-0.656,2.034-1.166,3.11-0.876
				c1.293,0.348,2.049,1.756,2.15,3.091c0.101,1.335-0.294,2.65-0.529,3.969c-0.254,1.425-0.324,2.882-0.207,4.324
				c0.121,1.497,0.432,3.069-0.147,4.455c-0.46,1.1-1.484,1.946-2.651,2.191C402.451,218.687,400.782,211.464,400.965,208.352z"/>
			<path style="fill:#5B7799;" d="M418.257,213.66c0.296-0.822,0.074-1.88-0.328-2.585c-0.619-1.086-1.609-1.953-2.067-3.116
				c-0.533-1.353-0.249-2.918,0.419-4.21c0.669-1.291,1.687-2.362,2.691-3.414c2.311-2.42,4.96-5.169,8.42-3.32
				c1.049,0.561,2.155,1.018,3.294,1.361c0.213,0.064,0.438,0.125,0.656,0.078c0.263-0.057,0.466-0.258,0.653-0.451
				c0.519-0.535,1.058-1.103,1.245-1.824c0.5-1.93-5.846-6.813-7.308-8.209c-1.961-1.873-3.645-5.653-7.033-4.618
				c-1.424,0.435-2.372,1.739-3.253,2.938c-2.936,3.996-6.28,7.69-9.963,11.01c-1.297,1.169-4.588,2.883-4.326,4.852
				c0.244,1.831,3.142,3.86,4.441,4.986c1.846,1.601,9.432,9.316,11.927,7.284C417.979,214.217,418.151,213.954,418.257,213.66z"/>
			<path style="fill:#D98C73;" d="M403.638,207.771c-0.28,0.087-0.553,0.195-0.817,0.324c-2.452,1.2-1.228,4.507-0.386,6.509
				c1.914,4.549,5.372,8.317,8.615,11.956c1.831,2.055,9.317,4.516,9.729-0.123c0.281-3.167-2.471-6.816-4.449-8.947
				c-2.18-2.009-3.646-4.359-3.006-7.442c0.285-1.37,0.862-2.662,1.208-4.018c0.085-0.333,0.156-0.687,0.062-1.018
				c-0.093-0.331-0.402-0.627-0.744-0.59c-0.193,0.021-0.36,0.139-0.514,0.26c-1.902,1.498-1.554,3.707-4.643,3.351
				c-1.026-0.118-2.022-0.453-3.053-0.509C404.965,207.486,404.284,207.572,403.638,207.771z"/>
			<path style="fill:#D98C73;" d="M433.088,443.761c-1.717,2.113-5.792,1.111-8.09,1.034c-1.838-0.062-3.683,0.352-4.48-1.509
				c-0.461-1.078-0.356-2.37-0.244-3.616c0.365-4.062,0.733-8.137,1.651-12.211c0.623-2.762,1.708-5.803,4.255-7.541
				c2.623-1.79,6.127-1.526,8.217,0.142c2.09,1.668,2.922,4.457,2.885,7.267c-0.038,2.81-0.855,5.681-1.665,8.514
				c-0.642,2.242-1.283,4.483-1.925,6.725C433.556,443.046,433.35,443.44,433.088,443.761z"/>
			<path style="fill:#161111;" d="M433.716,441.898c-0.127-0.004-0.259,0.007-0.381,0.021c-4.12,0.464-8.297,0.411-12.404-0.158
				c-0.524-0.073-1.061-0.153-1.577-0.037c-0.467,0.105-0.883,0.363-1.293,0.609c-3.861,2.314-8.148,3.915-12.581,4.698
				c-2.551,0.451-5.296,0.694-7.33,2.297c-0.951,0.75-1.701,2.151-0.986,3.129c0.243,0.333,0.614,0.546,0.986,0.724
				c3.85,1.844,9.683,1.181,13.837,0.982c6.707-0.322,13.344,0.133,19.965-1.161c0.271-0.053,0.552-0.118,0.767-0.292
				c0.301-0.243,0.412-0.646,0.502-1.022c0.438-1.825,0.811-3.682,1.042-5.546c0.091-0.735,0.524-3.389,0.021-4.015
				C434.147,441.96,433.937,441.905,433.716,441.898z"/>
			<path style="fill:#D98C73;" d="M498.295,437.762c-1.333,2.329-5.525,1.831-7.805,2.038c-1.824,0.166-3.574,0.809-4.677-0.957
				c-0.639-1.022-0.755-2.33-0.857-3.591c-0.332-4.114-0.664-8.241-0.452-12.436c0.144-2.844,0.696-6.025,2.913-8.081
				c2.283-2.118,5.785-2.288,8.131-0.876c2.346,1.412,3.643,4.102,4.084,6.922c0.442,2.819,0.125,5.797-0.192,8.734
				c-0.251,2.325-0.502,4.65-0.753,6.975C498.635,436.988,498.498,437.408,498.295,437.762z"/>
			<path style="fill:#161111;" d="M499.24,436.029c-0.103-0.453-12.947,1.793-14.367,2.015c-0.052,0.045-0.103,0.09-0.155,0.134
				c-4.442,3.774-10.075,5.828-15.587,7.823c-0.852,0.309-1.741,0.642-2.327,1.329c-2.502,2.936,2.81,4.199,4.694,4.357
				c3.085,0.259,6.137-0.364,9.125-0.889c6.186-1.088,12.498-0.736,18.621-2.248c0.241-0.06,0.501-0.133,0.646-0.332
				c0.115-0.158,0.137-0.366,0.155-0.565C500.379,443.796,500.106,439.858,499.24,436.029z"/>
			<path style="fill:#D98C73;" d="M492.327,152.424c0.268-3.352-0.846-6.715-2.917-9.366c-1.699-2.174-3.291-5.269-6.128-6.143
				c-2.775-0.855-5.861-1.21-8.747-0.844c-3.063,0.388-4.257,0.969-5.521,3.88c-2.415,5.562-2.454,12.09-1.826,18.022
				c0.139,1.312,0.377,2.671,1.151,3.739c0.774,1.069,2.229,1.75,3.452,1.252c1.49,5.161,0.678,10.333-0.163,15.521
				c-0.446,2.756-0.417,5.899,1.487,7.941c1.347,1.446,3.415,2.043,5.391,2.028c2.878-0.023,5.56-1.233,8.361-1.663
				c2.647-0.406,2.47-2.1,2.508-4.259c0.048-2.663-0.053-5.322-0.134-7.983c-0.157-5.139-0.236-10.383,1.256-15.358
				c0.553-1.845,1.317-3.633,1.667-5.527C492.24,153.252,492.294,152.838,492.327,152.424z"/>
			<path style="fill:#5DA5C7;" d="M471.459,337.289c3.101,30.911,6.428,61.809,9.969,92.693c7.245,0.623,14.333,0.148,21.369-1.043
				c4.611-33.596,4.686-67.896,0.527-101.974c-0.427-3.498-0.655-7.13-0.779-10.851c-0.737-22.151,2.222-47.436-11.082-66.141
				c-3.36-4.724-8.865-8.349-14.461-7.911c-4.093,0.321-7.247,2.549-9.602,5.743c-6.873,9.327-3.039,34.673-1.816,45.738
				C467.206,308.212,469.981,322.556,471.459,337.289z"/>
			<path style="fill:#5DA5C7;" d="M467.803,250.269c-15.157-1.645-21.265,13.77-24.197,25.79
				c-6.192,25.384-11.262,51.042-15.197,76.872c-1.957,12.848-4.16,25.661-5.78,38.558c-1.68,13.24-2.567,27.195-3.21,40.459
				c-0.013,0.268-0.02,0.558,0.136,0.777c0.175,0.246,0.499,0.324,0.794,0.384c5.511,1.108,11.124,1.706,16.744,1.785
				c0.264,0.004,0.542,0.003,0.769-0.133c0.257-0.153,0.392-0.444,0.51-0.719c5.489-12.793,8.635-27.139,11.247-40.796
				c5.463-28.556,13.424-56.635,23.762-83.809C479.33,293.804,496.916,253.429,467.803,250.269z"/>
			<path style="fill:#E3AE3D;" d="M505.113,188.237c-3.435-8.074-10.291-14.135-20.501-15.95
				c-10.186-1.811-16.353,2.303-20.226,12.006c-4.426,11.089-6.462,23.176-10.439,34.587c-4.915,14.104-9.662,31.201-8.674,46.248
				c8.387,1.896,16.742,2.869,25.476,2.928c2.713,0.018,32.32-1.516,32.264-1.766c-2.578-11.665-2.802-23.846-0.654-35.598
				c1.511-8.268,4.18-16.326,5.09-24.681C508.142,199.643,507.357,193.511,505.113,188.237z"/>
			<path style="fill:#E3AE3D;" d="M469.728,236.29c1.445-2.207,2.713-4.564,3.901-6.883c2.662-5.193,5.216-10.516,6.439-16.222
				c1.223-5.705,1.015-11.894-1.66-17.08c-0.528-1.023-1.176-2.03-2.136-2.667c-1.023-0.678-2.303-0.866-3.529-0.811
				c-5.367,0.24-9.615,4.621-12.482,9.164c-2.867,4.544-5.077,9.676-9.164,13.163c-7.406,6.318-15.194,3.233-23.517,1.473
				c-2.484-0.525-5.09-0.944-7.537-0.265c-8.625,2.394-11.421,12.391-4.672,18.251c2.588,2.247,5.775,3.663,8.914,5.039
				c10.728,4.702,24.098,11.554,35.841,5.963C464.196,243.478,467.227,240.109,469.728,236.29z"/>
			<path style="fill:#E3AE3D;" d="M483.156,176.787c-3.564-3.792-9.675-4.199-13.977-1.5c-2.516,1.578-3.793,4.837-5.092,7.422
				c-1.591,3.166-2.948,6.449-4.054,9.815c-1.145,3.482-2.021,7.045-3.095,10.549c-1.759,5.742-4.05,11.332-5.367,17.191
				c-1.317,5.859-1.606,12.151,0.599,17.737c3.149,7.979,13.649,3.741,18.328-0.699c4.029-3.823,5.96-9.297,7.755-14.553
				c1.803-5.28,3.605-10.56,5.408-15.84c1.521-4.456,3.264-10.353,3.579-16.061C487.531,185.572,486.604,180.457,483.156,176.787z"
				/>
			<path style="fill:#161111;" d="M484.783,134.872c-3.522-1.176-7.332-1.653-10.224-1.531c-0.893,0.038-1.934,0.061-2.499-0.631
				c-0.218-0.267-0.328-0.607-0.534-0.882c-1.161-1.552-3.557-0.195-4.241,1.136c-0.637,1.238-0.766,3.619-0.563,4.969
				c0.525,3.498,3.991,4.742,6.962,5.685c1.994,0.633,4.357,2.492,5.242,4.402c2.45,5.287,2.977,10.471,8.815,13.56
				c0.642,0.34,1.399,0.634,2.075,0.37c0.573-0.224,0.928-0.79,1.221-1.331c2.909-5.371,5.646-13.171,2.779-19.079
				C492.272,138.358,488.706,136.182,484.783,134.872z"/>
			<path style="fill:#D98C73;" d="M478.931,149.347c0.418-0.523,1.021-0.887,1.831-0.982c6.373-0.748,5.207,10.181-0.288,7.709
				C478.294,155.094,477.443,151.21,478.931,149.347z"/>
			<path style="fill:none;stroke:#131834;stroke-width:0.5;stroke-miterlimit:10;" d="M467.287,323.898
				c7.433-13.983,14.041-28.404,19.777-43.165"/>
			<path style="fill:#E8654B;" d="M417.297,195.805c0,1.803-1.539,3.266-3.437,3.266c-1.898,0-3.437-1.462-3.437-3.266
				s1.539-3.265,3.437-3.265C415.759,192.54,417.297,194.001,417.297,195.805z"/>
			<line style="fill:none;stroke:#161111;stroke-miterlimit:10;" x1="413.86" y1="195.805" x2="416.094" y2="187.727"/>
			<path style="fill:#E8654B;" d="M418.157,187.727c0,1.139-0.923,2.062-2.063,2.062c-1.139,0-2.062-0.923-2.062-2.062
				c0-1.139,0.923-2.062,2.062-2.062C417.233,185.665,418.157,186.588,418.157,187.727z"/>
			<path style="fill:#D98C73;" d="M417.027,190.32c0.209-1.117,1.049-2.094,2.123-2.468c1.108-0.386,2.652-0.363,3.021-1.477
				c0.185-0.558-0.075-1.196-0.523-1.576c-0.448-0.38-1.048-0.536-1.634-0.572c-1.802-0.111-3.625,0.902-4.482,2.49
				c-0.263,0.488-0.644,1.127-1.177,0.972c-0.252-0.073-0.416-0.316-0.519-0.558c-0.627-1.468,0.24-3.111,1.079-4.469
				c0.66-1.068,1.365-2.181,2.458-2.801c1.225-0.695,2.721-0.65,4.127-0.553c2.839,0.196,5.813,0.412,8.211,2.1
				c0.629,0.443,1.203,0.958,1.83,1.403c1.609,1.141,3.511,1.781,5.383,2.406c-0.584,2.028-1.169,4.055-1.753,6.083
				c-0.03,0.105-0.068,0.22-0.161,0.276c-0.098,0.06-0.224,0.034-0.336,0.007c-3.445-0.842-6.645-1.143-10.099-1.685
				C422.099,189.582,419.475,189.897,417.027,190.32z"/>
			<path style="fill:#E3AE3D;" d="M454.974,188.122c1.987,0.893,3.914,1.88,5.715,3.002c5.41,3.371,8.951,9.561,9.113,15.934
				c0.024,0.933-0.026,1.896-0.419,2.743c-0.63,1.359-2.047,2.197-3.487,2.613c-2.753,0.796-5.744,0.323-8.411-0.724
				c-2.667-1.047-5.079-2.638-7.509-4.157c-4.926-3.079-11.693-5.296-15.53-9.689c-1.874-2.145-3.093-5.054-2.543-7.849
				c0.379-1.929,1.538-3.599,2.67-5.206c2.439-3.463,6.466-1.857,9.968-0.645C447.97,185.332,451.56,186.588,454.974,188.122z"/>
			<g>
				<defs>
					<path id="SVGID_00000000218226689293799600000015633163626148913542_" d="M492.327,152.424
						c0.268-3.352-0.846-6.715-2.917-9.366c-1.699-2.174-3.291-5.269-6.128-6.143c-2.775-0.855-5.861-1.21-8.747-0.844
						c-3.063,0.388-4.257,0.969-5.521,3.88c-2.415,5.562-2.454,12.09-1.826,18.022c0.139,1.312,0.377,2.671,1.151,3.739
						c0.774,1.069,2.229,1.75,3.452,1.252c1.49,5.161,0.678,10.333-0.163,15.521c-0.446,2.756-0.417,5.899,1.487,7.941
						c1.347,1.446,3.415,2.043,5.391,2.028c2.878-0.023,5.56-1.233,8.361-1.663c2.647-0.406,2.47-2.1,2.508-4.259
						c0.048-2.663-0.053-5.322-0.134-7.983c-0.157-5.139-0.236-10.383,1.256-15.358c0.553-1.845,1.317-3.633,1.667-5.527
						C492.24,153.252,492.294,152.838,492.327,152.424z"/>
				</defs>
				<clipPath id="SVGID_00000155130637622190127570000011599203560665222543_">
					<use xlink:href="#SVGID_00000000218226689293799600000015633163626148913542_"  style="overflow:visible;"/>
				</clipPath>
				<path style="clip-path:url(#SVGID_00000155130637622190127570000011599203560665222543_);fill:#161111;" d="M469.755,163.259
					c2.966-0.184,5.885-1.09,8.434-2.617c-1.995,2.886-4.83,5.184-8.066,6.54"/>
			</g>
			<path style="fill:none;stroke:#131834;stroke-width:0.5;stroke-miterlimit:10;" d="M444.142,246.468
				c10.464,0.523,21.076-3.584,28.462-11.015c6.818-6.859,10.703-16.028,14.376-24.975"/>
			<path style="fill:none;stroke:#131834;stroke-width:0.5;stroke-miterlimit:10;" d="M454.522,210.01
				c2.438-7.237,4.876-14.475,7.314-21.712"/>
		</g>
		<g>
			<path style="fill:#DEA600;" d="M352.944,179.783c-3.243,0.345-7.369-1.33-10.589-0.822c-5.5,0.868-3.954,7.196-4.684,12.212
				c-1.747,12.008-2.522,24.158-2.311,36.292c-0.027-1.536,4.771-6.724,5.776-8.53c2.135-3.834,4.567-7.531,6.842-11.284
				c2.006,17.52,4.838,34.945,8.484,52.199c3.428-15.857,6.856-31.714,10.283-47.571c0.998,6.38,2.992,12.604,5.886,18.376
				c-0.929-1.854,0.339-8.041,0.327-10.397c-0.023-4.441,0.512-8.917,0.58-13.367c0.138-9.05-0.283-18.109-1.254-27.108H352.944z"/>
			<g>
				<g>
					<path style="fill:#E8654B;" d="M320.112,166.684c-2.887,7.271-4.662,14.985-5.192,22.791
						c4.678-4.354,9.558-8.491,14.618-12.394c3.248-2.506,12.492-6.763,13.463-10.739c0.805-3.296-6.441-19.941-10.554-19.634
						c-4.469,0.334-10.272,15.039-11.727,18.491C320.512,165.693,320.31,166.187,320.112,166.684z"/>
					<path style="fill:#E8654B;" d="M393.997,166.408c-3.281-7.808-8.488-14.803-15.169-19.332
						c-0.184-0.125-6.721,16.913-7.603,18.762c10.085,5.98,19.104,13.919,26.586,22.928
						C398.409,181.485,397.02,173.601,393.997,166.408z"/>
				</g>
				<path style="fill:#FFFFFF;" d="M355.982,45.557h-0.195c0,0-28.623,26.851-28.646,60.662c-0.03,44.392,9.845,71.057,9.845,71.057
					h3.601h30.597h3.601c0,0,9.875-26.665,9.845-71.057C384.605,72.408,355.982,45.557,355.982,45.557z"/>
				<g>
					<defs>
						<path id="SVGID_00000139279852148308054010000017858539958122237355_" d="M355.982,45.557h-0.195
							c0,0-28.623,26.851-28.646,60.662c-0.03,44.392,9.845,71.057,9.845,71.057h3.601h30.597h3.601c0,0,9.875-26.665,9.845-71.057
							C384.605,72.408,355.982,45.557,355.982,45.557z"/>
					</defs>
					<clipPath id="SVGID_00000069383615153694458100000014003115295257360568_">
						<use xlink:href="#SVGID_00000139279852148308054010000017858539958122237355_"  style="overflow:visible;"/>
					</clipPath>
					
						<rect x="322.016" y="41.956" style="clip-path:url(#SVGID_00000069383615153694458100000014003115295257360568_);fill:#E8654B;" width="65.925" height="26.73"/>
				</g>
				<path style="fill:#5DA5C7;" d="M371.175,182.67h-30.582c-1.993,0-3.608-1.616-3.608-3.608v-1.785h37.798v1.785
					C374.783,181.054,373.168,182.67,371.175,182.67z"/>
			</g>
			<g>
				
					<ellipse transform="matrix(0.2298 -0.9732 0.9732 0.2298 181.5215 420.5164)" style="fill:#E0E0E0;" cx="356.433" cy="95.577" rx="13.787" ry="13.787"/>
				<path style="fill:#5DA5C7;" d="M366.984,95.577c0,5.827-4.724,10.551-10.551,10.551c-5.827,0-10.551-4.724-10.551-10.551
					c0-5.827,4.724-10.551,10.551-10.551C362.26,85.026,366.984,89.75,366.984,95.577z"/>
			</g>
			<g>
				
					<ellipse transform="matrix(0.2298 -0.9732 0.9732 0.2298 142.0815 451.73)" style="fill:#E0E0E0;" cx="356.433" cy="136.101" rx="13.787" ry="13.787"/>
				<path style="fill:#5DA5C7;" d="M366.984,136.101c0,5.827-4.724,10.551-10.551,10.551c-5.827,0-10.551-4.724-10.551-10.551
					c0-5.827,4.724-10.551,10.551-10.551C362.26,125.55,366.984,130.274,366.984,136.101z"/>
			</g>
			<path style="fill:none;stroke:#131834;stroke-width:0.5;stroke-miterlimit:10;" d="M341.35,190.268
				c-0.611,5.82-1.223,11.641-1.834,17.461"/>
			<path style="fill:none;stroke:#131834;stroke-width:0.5;stroke-miterlimit:10;" d="M363.398,209.343
				c-0.53,3.448-1.059,6.896-1.589,10.345"/>
			<path style="fill:none;stroke:#131834;stroke-width:0.5;stroke-miterlimit:10;" d="M360.838,223.571
				c-0.551,2.259-1.102,4.518-1.653,6.777"/>
			<path style="fill:none;stroke:#131834;stroke-width:0.5;stroke-miterlimit:10;" d="M370.124,191.239
				c-0.365,5.485-0.342,10.996,0.068,16.478"/>
		</g>
		<g>
			<path style="fill:#5DA5C7;" d="M395.662,375.978c-0.352-0.625-0.756-1.212-1.197-1.768c-0.93-1.313-2.039-2.311-3.274-3.03
				c-2.408-1.644-5.283-2.643-8.193-2.897c-0.904-0.079-1.808-0.063-2.707,0.017c-0.173-0.654-0.418-1.278-0.672-1.8
				c-0.988-2.03-2.562-3.789-4.128-5.4c-3-3.085-6.589-5.948-10.893-6.939c-9.123-2.102-18.125,2.4-22.477,10.699
				c-3.095-1.519-7.062-1.049-9.717,1.152c-2.658,2.204-3.771,5.897-2.969,9.225c-0.17-0.705-5.862,2.119-6.329,2.452
				c-2.077,1.483-3.321,3.226-3.832,5.754c-0.91,2.789-0.585,4.965,0.563,6.618c0.057,0.151,0.109,0.303,0.172,0.452
				c3.958,9.411,16.486,8.832,24.456,4.168c2.167,4.858,7.521,7.947,12.772,8.511c4.198,0.451,8.675-0.451,11.929-3.255
				c1.978-1.704,3.381-4.189,3.844-6.799c0.009,0.004,0.019,0.009,0.028,0.013c2.466,1.086,5.185,1.548,7.868,1.685
				c2.811,0.144,5.938,0.042,8.592-0.937c2.256-0.832,4.078-2.321,5.464-4.256C397.798,385.684,398.04,380.194,395.662,375.978z"/>
			<g>
				<g>
					<path style="fill:#DEA600;" d="M379.871,332.789c-0.184-11.832-10.243-21.195-22.206-20.363
						c-10.09,0.702-18.369,8.848-19.193,18.929c-0.593,7.262,2.545,13.785,7.682,17.911c3.149,2.529,5.291,6.097,5.772,10.107
						l1.34,11.159l12.901-0.201l0.993-11.198c0.355-4,2.348-7.635,5.407-10.237C377.119,345.026,379.972,339.231,379.871,332.789z"
						/>
					<path style="fill:none;stroke:#222540;stroke-width:0.5;stroke-miterlimit:10;" d="M356.464,363.314
						c-1.132-5.038-2.263-10.076-3.395-15.115c-1.048-4.667-3.207-9.523-3.676-14.224c-0.197-1.976,2.224-2.069,3.486-1.149
						c0.458,0.334,0.832,0.858,0.791,1.423c-0.041,0.565-0.646,1.079-1.173,0.872c-0.474-0.186-0.626-0.796-0.559-1.3
						c0.181-1.355,1.594-2.416,2.946-2.211c1.351,0.205,2.387,1.637,2.158,2.985c-0.109,0.644-0.832,1.323-1.335,0.907
						c-0.142-0.117-0.219-0.294-0.271-0.47c-0.374-1.264,0.421-2.717,1.645-3.205c1.224-0.488,2.716-0.053,3.593,0.931
						c0.347,0.39,0.616,0.883,0.604,1.404c-0.012,0.522-0.371,1.055-0.887,1.138c-0.663,0.107-1.253-0.588-1.237-1.259
						c0.016-0.671,0.47-1.259,0.996-1.676c1.024-0.812,2.51-1.144,3.668-0.537c1.158,0.607,1.703,2.292,0.892,3.318
						c-0.205,0.259-0.496,0.47-0.825,0.5c-0.876,0.08-1.344-1.092-1.135-1.947c0.338-1.381,1.762-2.408,3.179-2.293
						c4.088,0.331,2.066,5.109,1.653,7.479c-0.576,3.311-1.153,6.621-1.729,9.932c-0.811,4.66-1.622,9.321-2.434,13.981"/>
					<path style="fill:#1B2258;" d="M359.837,372.336c-1.731-0.139-3.463-0.431-5.173-0.724c-0.545-0.093-1.108-0.194-1.564-0.507
						c-1.844-1.271-1.926-7.266-1.661-9.452c0.002-0.018,14.765-0.201,16.282-0.276c-0.294,2.98,0.372,5.728-0.507,8.724
						c-0.165,0.563-0.38,1.147-0.836,1.518c-0.367,0.298-0.844,0.419-1.309,0.509C363.344,372.461,361.591,372.477,359.837,372.336z
						"/>
				</g>
				<path style="fill:none;stroke:#222540;stroke-width:0.5;stroke-miterlimit:10;" d="M346.151,230.26c0,6.544,0,13.087,0,19.631"
					/>
				<path style="fill:none;stroke:#222540;stroke-width:0.5;stroke-miterlimit:10;" d="M339.078,246.971
					c1.214,18.64,1.852,37.318,1.915,55.998"/>
				<path style="fill:none;stroke:#222540;stroke-width:0.5;stroke-miterlimit:10;" d="M346.138,265.161
					c0.243,6.544,0.486,13.087,0.729,19.631"/>
				<path style="fill:none;stroke:#222540;stroke-width:0.5;stroke-miterlimit:10;" d="M356.435,275.332
					c0.744,10.889,0.934,21.816,0.568,32.724"/>
				<path style="fill:none;stroke:#222540;stroke-width:0.5;stroke-miterlimit:10;" d="M368.139,238.987
					c0.036,17.45,0.264,34.9,0.685,52.345"/>
				<path style="fill:none;stroke:#222540;stroke-width:0.5;stroke-miterlimit:10;" d="M374.47,251.348
					c0.645,9.921,0.906,19.867,0.781,29.808"/>
			</g>
			<path style="fill:none;stroke:#222540;stroke-width:0.5;stroke-miterlimit:10;" d="M348.376,388.064
				c-0.288,5.533,4.589,10.802,10.128,10.942"/>
			<path style="fill:none;stroke:#222540;stroke-width:0.5;stroke-miterlimit:10;" d="M332.022,378.569
				c-2.54,0.159-5.12,1.007-6.929,2.798c-1.809,1.791-2.687,4.626-1.754,6.993"/>
			<path style="fill:none;stroke:#222540;stroke-width:0.5;stroke-miterlimit:10;" d="M389.834,375.464
				c3.198,2.42,3.697,7.674,1.013,10.652"/>
			<path style="fill:none;stroke:#222540;stroke-width:0.5;stroke-miterlimit:10;" d="M349.803,360.916
				c-3.437,2.351-5.588,6.476-5.547,10.64"/>
			<path style="fill:none;stroke:#131834;stroke-width:0.5;stroke-miterlimit:10;" d="M348.681,319.544
				c-4.706,4.074-7.441,10.153-7.361,16.382"/>
			<path style="fill:none;stroke:#131834;stroke-width:0.5;stroke-miterlimit:10;" d="M356.768,315.162
				c-0.99,0.284-1.959,0.64-2.898,1.064"/>
		</g>
	</g>
</g>
</svg>
