<svg xmlns="http://www.w3.org/2000/svg" version="1.1" xmlns:xlink="http://www.w3.org/1999/xlink" xmlns:svgjs="http://svgjs.dev/svgjs" width="128" height="128" viewBox="0 0 128 128"><g transform="matrix(0.321875,0,0,0.321875,43.39238376929477,12.33387096774193)"><svg viewBox="0 0 62 155" data-background-color="#000000" preserveAspectRatio="xMidYMid meet" height="320" width="128" xmlns="http://www.w3.org/2000/svg" xmlns:xlink="http://www.w3.org/1999/xlink"><g id="tight-bounds" transform="matrix(1,0,0,1,0.011461318051573244,0.25)"><svg viewBox="0 0 61.97707736389685 154.5" height="154.5" width="61.97707736389685"><g><svg viewBox="0 0 61.97707736389685 154.5" height="154.5" width="61.97707736389685"><g><svg viewBox="0 0 61.97707736389685 154.5" height="154.5" width="61.97707736389685"><g id="textblocktransform"><svg viewBox="0 0 61.97707736389685 154.5" height="154.5" width="61.97707736389685" id="textblock"><g><svg viewBox="0 0 61.97707736389685 154.5" height="154.5" width="61.97707736389685"><g transform="matrix(1,0,0,1,0,0)"><svg width="61.97707736389685" viewBox="3 -34.9 14 34.9" height="154.5" data-palette-color="#169ea0"><g class="wordmark-text-0" data-fill-palette-color="primary" id="text-0"><path d="M17 0L3 0 3-3.5 7.9-3.5 7.9-31.4 3-31.4 3-34.9 17-34.9 17-31.4 12.1-31.4 12.1-3.5 17-3.5 17 0Z" fill="#169ea0" data-fill-palette-color="primary"></path></g></svg></g></svg></g></svg></g></svg></g><g></g></svg></g><defs></defs></svg><rect width="61.97707736389685" height="154.5" fill="none" stroke="none" visibility="hidden"></rect></g></svg></g></svg>