<svg xmlns="http://www.w3.org/2000/svg" version="1.1" xmlns:xlink="http://www.w3.org/1999/xlink" xmlns:svgjs="http://svgjs.dev/svgjs" width="2000" height="10553" viewBox="0 0 2000 10553"><g transform="matrix(1,0,0,1,-18.38963269029648,-17.020967741936147)"><svg viewBox="0 0 47 248" data-background-color="#000000" preserveAspectRatio="xMidYMid meet" height="10553" width="2000" xmlns="http://www.w3.org/2000/svg" xmlns:xlink="http://www.w3.org/1999/xlink"><g id="tight-bounds" transform="matrix(1,0,0,1,0.43215636822196757,0.4000000000000057)"><svg viewBox="0 0 46.135687263556115 247.2" height="247.2" width="46.135687263556115"><g><svg viewBox="0 0 46.135687263556115 247.2" height="247.2" width="46.135687263556115"><g><svg viewBox="0 0 46.135687263556115 247.2" height="247.2" width="46.135687263556115"><g id="textblocktransform"><svg viewBox="0 0 46.135687263556115 247.2" height="247.2" width="46.135687263556115" id="textblock"><g><svg viewBox="0 0 46.135687263556115 247.2" height="247.2" width="46.135687263556115"><g transform="matrix(1,0,0,1,0,0)"><svg width="46.135687263556115" viewBox="2.2 -39.65 7.3999999999999995 39.65" height="247.2" data-palette-color="#169ea0"><path d="M2.85-26.45L9-26.45 9 0 2.85 0 2.85-26.45ZM5.9-39.65Q7.55-39.65 8.58-38.6 9.6-37.55 9.6-35.9L9.6-35.9Q9.6-34.3 8.58-33.25 7.55-32.2 5.9-32.2L5.9-32.2Q4.25-32.2 3.23-33.25 2.2-34.3 2.2-35.9L2.2-35.9Q2.2-37.55 3.23-38.6 4.25-39.65 5.9-39.65L5.9-39.65Z" opacity="1" transform="matrix(1,0,0,1,0,0)" fill="#169ea0" class="wordmark-text-0" data-fill-palette-color="primary" id="text-0"></path></svg></g></svg></g></svg></g></svg></g><g></g></svg></g><defs></defs></svg><rect width="46.135687263556115" height="247.2" fill="none" stroke="none" visibility="hidden"></rect></g></svg></g></svg>